<?xml version="1.0" encoding="UTF-8"?>
<svg id="layer" xmlns="http://www.w3.org/2000/svg" version="1.1" width="173" height="63"
    viewBox="0 0 172 63">
    <defs>
        <style>
            .st0 {
            fill: #fff;
            }

            .st1 {
            fill: #e5e5e5;
            }

            .st2 {
            fill: #f2f2f2;
            }
        </style>
    </defs>
    <g id="LB_Pressed">
        <path class="st2"
            d="M134.2.8C92-4.9,38.3,22.2,20,32.1c-.3.2-.6.3-.8.5,0,0-.2.1-.2.2-.2,0-.4.2-.5.3,0,0-.2.1-.3.2-.1.1-.3.2-.5.3l-.3.2c-.1.1-.3.2-.4.3l-.3.2-.4.3-.2.2c-.1,0-.3.2-.4.3,0,0-.2.1-.2.2l-.4.3-.2.2c-.1,0-.2.2-.4.3,0,0-.1.1-.2.2-.1,0-.2.2-.3.3,0,0-.1.1-.2.2l-.3.3-.2.2c0,.1-.2.2-.3.3,0,0,0,0-.1.2-.1.1-.2.2-.3.3,0,0,0,0-.1.1-.1.1-.2.3-.3.4h-.1c0,0-.3.5-.3.5h0c-.1.2-.2.4-.3.5h0s-.2.3-.3.5S108.6-2.2,132.9,5.5c15.5,4.9,27.2,15.3,32.8,18.2l3.4-6.4c-12.4-3.6-27-15.5-34.9-16.6Z" />
        <g>
            <path class="st1" d="M166.2,24l.5.2-.5-.2Z" />
            <path class="st1"
                d="M165.7,23.7c-5.6-2.9-17.3-13.4-32.8-18.2C108.7-2.1,11.6,39.6,10.9,39.9c-5,7.4-2.2,15.3-10.8,23H0C33.2,45,99.2,24.8,118.8,28.5c9.1,1.8,19.9,12.1,31.1,24.8l15.9-29.6h0Z" />
            <path class="st0" d="M165.7,23.7l.5.2-.5-.2Z" />
        </g>
        <path class="st0"
            d="M150.6,54.1c.2.3.5.6.7.8l16.4-30.5,3.5-6.5c-.3,0-.7-.1-1-.2s-.7-.2-1-.3l-3.4,6.3-15.9,29.6.7.8h0" />
    </g>
</svg>