<?xml version="1.0" encoding="UTF-8"?>
<svg id="layer" xmlns="http://www.w3.org/2000/svg" version="1.1" width="71" height="128"
    viewBox="0 0 71 128">
    <defs>
        <style>
            .st0 {
            fill: #f0f0f0;
            }

            .st1 {
            fill: #edf4f4;
            }

            .st2 {
            fill: #e5e5e5;
            }

            .st3 {
            fill: #e3e3e3;
            }

            .st4 {
            fill: #dbdbdb;
            }

            .st5 {
            fill: #d6d6d6;
            }

            .st6 {
            fill: #ebebeb;
            }

            .st7 {
            fill: #e8e8e8;
            }

            .st8 {
            fill: #e6e6e6;
            }
        </style>
    </defs>
    <g>
        <g id="Up">
            <g>
                <path class="st6"
                    d="M40.4,41.5V7.3s0,0,0-.1v-.2c0,0,.2-.1.2-.1.5-.8,2.1-1.5,4.5-2l.9-.2c.3,0,.7-.1,1-.1h1c0-.1,1-.2,1-.2h1c0,0,2.4-.2,2.4-.2h1c7.3,0,13.1,1.4,13.1,3.2v34.2l-12.9,13-13.1-13Z" />
                <path class="st1"
                    d="M53.5,4.6c8.1,0,12.6,1.6,12.6,2.7v34l-12.6,12.6-12.6-12.6V7.3h0c.2-.4.9-1.2,4.2-1.9h0l.8-.2h0c.3,0,.6,0,.8-.1h1.1c0-.1,1-.2,1-.2h1c0,0,1.2,0,1.2,0h2.1M53.4,3.9h-4.4c0,0-1,.2-1,.2h-1c0,0,0,0,0,0-.3,0-.6,0-.9.1h0c-.3,0-.6.1-.9.2h0c-2.4.5-4.2,1.2-4.9,2.2,0,0,0,.1-.1.2h0v.2c0,0,0,0,0,0v.2c0,0,0,.1,0,.2v34.5l13.4,13.6,13.6-13.6V7.3h0c0-2.5-6.8-3.7-13.6-3.7v.3Z" />
            </g>
            <path class="st4"
                d="M45,4.3h0l.9-.2h.1c.3,0,.6,0,.9-.1h1.1c0-.1,1-.2,1-.2h1c0,0,.1,0,.1,0h3.3c6.8,0,13.6,1.2,13.6,3.7l2.8-2.8c-.9-1.5-2.7-2.8-6.1-3.7-3.3-.7-6.8-1.1-10.2-1-3.4,0-6.8.3-10.2,1-2.9.7-4.7,1.8-5.7,3l2.6,2.6c.6-1,2.4-1.7,4.8-2.2Z" />
            <path class="st3" d="M67.1,7.3h0v34.4l3.6-3.6V7.3c0-1-.3-2-.8-2.8l-2.8,2.8Z" />
            <path class="st5"
                d="M39.9,7.3c0,0,0-.1,0-.2,0,0,0,0,0-.1h0v-.2h0c0,0,0-.1,0-.2l-2.5-2.7c-.8.9-1.3,2.1-1.3,3.3v30.8l3.6,3.6V7.3Z" />
        </g>
        <g id="Down">
            <g>
                <path class="st6"
                    d="M17.2,51.2c-7.1,0-12.8-1.3-13-3.1,0,0,0,0,0-.1V13.8L17.2.7l13.1,13.1v34.4c-.3,1.7-5.9,3.1-13.1,3.1Z" />
                <path class="st1"
                    d="M17.2,1.4l12.6,12.6v34s0,0,0,0c-.2,1.1-4.7,2.7-12.5,2.7s-12.4-1.6-12.6-2.7c0,0,0,0,0,0V14L17.2,1.4M17.2,0L3.6,13.6v34.4h0c0,0,0,.2,0,.2.4,2.3,7,3.5,13.5,3.5s13.1-1.2,13.5-3.5c0,0,0-.2,0-.2V13.6L17.2,0Z" />
            </g>
            <path class="st0" d="M30.7,48l2.8,2.8c.6-.8.8-1.8.9-2.8v-30.8l-3.6-3.6v34.4Z" />
            <path class="st7"
                d="M30.7,48.2c-.4,2.3-7,3.5-13.5,3.5s-13.2-1.2-13.5-3.5c0,0,0-.2,0-.2l-2.8,2.8c.9,1.4,2.7,2.7,6.2,3.5,3.3.7,6.8,1.1,10.2,1,3.4,0,6.8-.3,10.2-1,3.4-.8,5.2-2.2,6.1-3.5l-2.8-2.8c0,0,0,.1,0,.2Z" />
            <path class="st3" d="M3.6,48h0V13.6l-3.6,3.6v31.9c.2.6.5,1.2.8,1.7l2.8-2.8Z" />
        </g>
    </g>
    <g>
        <g id="Right">
            <g>
                <path class="st6"
                    d="M13.8,87.6L.7,74.5l13.1-13.1h34.2c1.8,0,3.2,5.7,3.2,13.1s-1.4,13.1-3.2,13.1H13.8Z" />
                <path class="st1"
                    d="M48,61.9c1.1,0,2.7,4.8,2.7,12.6s-1.6,12.6-2.7,12.6H14l-12.6-12.6,12.6-12.6h34M48,60.9H13.6L0,74.5l13.6,13.6h34.4c5,0,5-27.1,0-27.1Z" />
            </g>
            <path class="st8" d="M48,60.9l2.8-2.8c-.8-.5-1.8-.8-2.8-.8h-30.8l-3.6,3.7h34.4Z" />
            <path class="st7" d="M48,88.1H13.6l3.6,3.6h32.3l.3-.3c.3-.1.6-.3.9-.5l-2.7-2.8Z" />
            <path class="st0"
                d="M50.7,58.2l-2.7,2.8c5,0,5,27.1,0,27.1l2.8,2.8c1.4-.9,2.7-2.7,3.5-6.1.7-3.3,1.1-6.8,1-10.2,0-3.4-.3-6.8-1-10.2-.9-3.4-2.2-5.2-3.6-6.1Z" />
        </g>
        <g id="left">
            <g>
                <path class="st6"
                    d="M7.3,123.9c-1.8,0-3.2-5.7-3.2-13.1s1.4-13.1,3.2-13.1h34.2l13.1,13.1-13.1,13.1H7.3Z" />
                <path class="st1"
                    d="M41.4,98.3l12.6,12.6-12.6,12.6H7.4c-1.2,0-2.8-4.8-2.8-12.6s1.6-12.6,2.7-12.6h34M41.8,97.3H7.3c-5,0-5,27.1,0,27.1h34.4l13.6-13.6-13.6-13.6h0Z" />
            </g>
            <path class="st4" d="M41.8,97.3l-3.6-3.6H7.3c-1,0-2,.3-2.8.8l2.8,2.8h34.4Z" />
            <path class="st5"
                d="M7.3,97.3h0l-2.8-2.8c-1.4.9-2.7,2.7-3.5,6.1-1.4,6.7-1.4,13.7,0,20.4.9,3.4,2.2,5.2,3.5,6.1l2.8-2.8c-5,0-5-27.1,0-27.1Z" />
            <path class="st2" d="M7.3,124.4l-2.8,2.8c.8.5,1.8.8,2.8.8h30.8l3.6-3.6H7.3Z" />
        </g>
    </g>
</svg>