<?xml version="1.0" encoding="UTF-8"?>
<svg id="layer" xmlns="http://www.w3.org/2000/svg" version="1.1" width="169" height="84"
    viewBox="0 0 169 84">
    <defs>
        <style>
            .st0 {
            fill: #fff;
            }

            .st1 {
            opacity: 0;
            }

            .st2 {
            fill: #262626;
            }

            .st3 {
            fill: #e5e5e5;
            }

            .st4 {
            fill: #404040;
            }

            .st5 {
            fill: #bfbfbf;
            }

            .st6 {
            fill: #333;
            }

            .st7 {
            fill: #1a1a1a;
            }

            .st8 {
            fill: #dedede;
            }

            .st9 {
            fill: #d9d9d9;
            }
        </style>
    </defs>
    <g>
        <g>
            <path class="st7"
                d="M168.8,41.7c0,23-18.7,41.7-41.7,41.7-23,0-41.7-18.7-41.7-41.7C85.4,18.7,104.1,0,127.1,0c23,0,41.7,18.6,41.7,41.7h0Z" />
            <path class="st4"
                d="M127.1,0h-2l1,20h1V0h0ZM123.1.2h-.3c-.6,0-1.1.1-1.7.2l2.8,19.8c.3,0,.7,0,1-.1L123.1.2ZM119.1.8h-.5c-.5.1-1,.2-1.4.3l4.7,19.4c.3,0,.7-.2,1-.2l-3.8-19.5ZM115.2,1.8l-.8.2h-.1l-.9.3,6.6,18.9c.3-.1.7-.2,1-.3l-5.7-19.2h0ZM111.5,3c-.6.2-1.2.5-1.8.8l8.4,18.2c.3-.1.6-.3,1-.4l-7.5-18.6ZM107.8,4.7c-.6.3-1.2.6-1.8,1l10.1,17.3c.3-.2.6-.4.9-.5l-9.2-17.8ZM104.4,6.7c-.6.4-1.1.7-1.7,1.1l11.7,16.2.9-.6-10.9-16.7h0ZM101.1,9c-.5.4-1,.9-1.5,1.3l13.2,15c.3-.2.5-.5.8-.7l-12.5-15.6h0ZM98.1,11.7l-.8.8h0l-.4.4,14.6,13.7c.2-.2.5-.5.7-.7l-14-14.2h0ZM95.4,14.6h0c-.4.4-.7.9-1.1,1.4h0l15.8,12.3c.2-.3.4-.5.7-.8l-15.2-13-.2.2ZM92.9,17.8l-.2.2h0c-.3.5-.6.9-.9,1.4l16.9,10.7c.2-.3.4-.6.6-.9l-16.4-11.4ZM90.8,21.1l-.4.8h0c-.2.3-.3.6-.5.9l17.8,9c.2-.3.3-.6.5-.9l-17.4-9.9h0ZM89,24.7l-.2.5h0c-.2.5-.3,1-.5,1.4l18.6,7.3c.1-.3.3-.6.4-1l-18.3-8.1ZM87.6,28.4c0,.3-.2.5-.3.8h0c0,.2-.1.4-.2.5l19.2,5.4c0-.3.2-.7.3-1l-19-6.4v.6ZM86.5,32.3c-.1.5-.2,1.1-.3,1.6,0,.1,0,.2,0,.4l19.7,3.5c0-.3.1-.7.2-1l-19.5-4.5h0ZM85.8,36.2l-.2,1.3h0v.6c0,0,19.9,1.7,19.9,1.7,0-.3,0-.7.1-1l-19.8-2.6h0ZM85.4,40.2v1h0v.3h0v.4l20-.2h0v-.8l-20-.7h0ZM105.4,43l-20,1.2c0,.6,0,1.1.1,1.7h0v.2l19.9-2.1c0-.3,0-.7,0-1h0ZM105.7,45.1l-19.8,3.1h0c0,.5.2,1,.3,1.6h0v.2l19.6-4c0-.3-.1-.7-.2-1v.2ZM106.1,47.1l-19.4,5c.2.7.3,1.3.5,1.9l19.1-5.9c0-.3-.2-.7-.3-1h0ZM106.7,49.1l-18.8,6.8c.2.6.5,1.2.7,1.9l18.5-7.7c-.1-.3-.3-.6-.4-1h0ZM107.5,51l-18.1,8.6c0,0,0,.2.1.2h0c.2.4.4.7.6,1.1h0l.2.3,17.6-9.5c-.2-.3-.3-.6-.5-.9v.2ZM108.5,52.8l-17.2,10.3.3.5h0c.2.4.5.8.7,1.1l16.7-11c-.2-.3-.4-.6-.6-.9h0ZM109.6,54.6l-16.1,11.9.2.3h0c.2.3.5.6.7.9l15.5-12.6c-.2-.3-.4-.5-.6-.8l.3.4ZM111,56.2l-14.9,13.4c.4.5.9,1,1.4,1.4l14.2-14.1c-.2-.2-.5-.5-.7-.8h0ZM112.4,57.7l-13.6,14.7.8.7h0l.7.6,12.8-15.3c-.3-.2-.5-.5-.8-.7h0ZM114,59l-12.1,16,.9.7.7.5,11.3-16.5-.9-.7ZM115.7,60.2l-10.5,17h0c.5.4,1,.7,1.5.9h0l9.7-17.5-.9-.5h.1ZM117.5,61.2l-8.8,18,.3.2h.2c.4.2.8.4,1.3.6l7.9-18.4c-.3-.1-.6-.3-.9-.4h0ZM119.4,62l-7,18.7c.6.2,1.2.4,1.9.7l6.1-19-1-.3h0ZM121.4,62.6l-5.2,19.4h.2c0,0,.2,0,.2,0,.5.1,1,.3,1.5.4l4.3-19.5c-.3,0-.7-.2-1-.2h0ZM123.4,63.1l-3.3,19.7c.5,0,1,.2,1.5.2h.5c0,0,2.4-19.8,2.4-19.8-.3,0-.7,0-1-.2h0ZM125.5,63.3l-1.4,20h2l.5-20h-1.1ZM128.7,63.3h-1s.5,20,.5,20h1.9c0,0,.1,0,.1,0l-1.4-20h0ZM130.7,63.1c-.3,0-.7.1-1,.2l2.4,19.9c.6,0,1.2-.2,1.8-.3h.1l-3.3-19.7h0ZM132.7,62.6c-.3,0-.7.2-1,.2l4.3,19.5h.4l.8-.2h.4l.5-.2-5.2-19.3h0ZM134.7,62l-1,.3,6.1,19,.9-.3h.2l.8-.3-7-18.7h0ZM136.6,61.2l-.9.4,7.9,18.4c.4-.2.7-.3,1-.5h.2l.6-.3-8.8-18h0ZM138.5,60.2c-.3.2-.6.4-.9.5l9.7,17.5h.2c0,0,.1,0,.1,0h0c.5-.3.9-.5,1.4-.8l-10.5-17h0ZM140.2,59c-.3.2-.6.4-.9.6l11.3,16.5c.2-.2.5-.3.8-.5h.1l.6-.4-11.9-16.1ZM141.8,57.7c-.2.2-.5.5-.8.7l12.8,15.3h.3c.3-.3.7-.6,1-.9h0l-13.4-15.2h0ZM143.2,56.2c-.2.3-.5.5-.7.8l14.2,14h0c.3-.3.6-.6.9-1h0l.3-.3-14.8-13.4h0ZM144.6,54.6c-.2.3-.4.5-.6.8l15.5,12.6h0c.2-.3.4-.5.6-.8h0l.4-.5-15.8-12.2h0ZM145.7,52.8c-.2.3-.4.6-.6.9l16.6,11.1v-.2h.1c.3-.5.6-1,.9-1.4h0l-17.1-10.3h0ZM146.7,51c-.1.3-.3.6-.5.9l17.6,9.5.3-.5c.1-.3.3-.5.4-.8h0c0-.1.1-.2.2-.3l-18-8.7h0ZM147.5,49.1c-.1.3-.2.6-.4,1l18.4,7.7.3-.7h0c.1-.4.3-.7.4-1.1l-18.8-6.8h0ZM148.1,47.1c0,.3-.2.7-.3,1l19.1,5.9v-.4h.1l.3-1.2-19.4-5v-.3ZM148.5,45.1c0,.3-.1.7-.2,1l19.6,4c.1-.6.2-1.2.3-1.7v-.2l-19.8-3.1h0ZM148.8,43c0,.3,0,.7,0,1l19.9,2.1c0-.2,0-.5,0-.7h0c0-.4,0-.8,0-1.1h0c0,0-20-1.2-20-1.2h0ZM168.8,40.2l-20,.7v1.1l20,.2v-.4h0v-.3h0v-.3h0v-.4h0v-.2h0v-.3h0ZM168.4,36.2l-19.8,2.6c0,.3,0,.7.1,1l19.9-1.7v-.5h0c0-.5-.1-.9-.2-1.4h0ZM167.7,32.3l-19.5,4.5c0,.3.1.7.2,1l19.7-3.6-.2-1h0v-.3h0c0,0,0-.3,0-.3v-.4ZM166.6,28.4l-19,6.4c.1.3.2.7.3,1l19.2-5.4h0c-.1-.5-.3-1-.4-1.5h0c0-.1,0-.2-.1-.3v-.2ZM165.2,24.7l-18.3,8.2c.1.3.3.6.4,1l18.6-7.3c-.2-.6-.5-1.2-.8-1.9h0ZM163.4,21.1l-17.4,9.9c.2.3.3.6.5.9l17.9-9c-.3-.5-.5-1-.8-1.5h0v-.3ZM161.2,17.7l-16.4,11.5c.2.3.4.6.6.9l16.9-10.7v-.2h-.1l-.7-1h0l-.3-.4h0ZM158.8,14.6l-15.2,13c.2.3.4.5.7.8l15.8-12.2h-.1c0-.1-.1-.3-.1-.3l-1-1.3ZM156,11.7l-13.9,14.4.7.7,14.6-13.7h0c-.5-.5-.9-1-1.4-1.4h0ZM153,9l-12.4,15.7c.3.2.5.4.8.7l13.2-15-.2-.2h0l-1.3-1.2ZM149.8,6.7l-10.9,16.8c.3.2.6.4.9.6l11.7-16.2-.4-.3h0l-.5-.4h0l-.6-.4h0ZM146.3,4.7l-9.2,17.7c.3.2.6.3.9.5l10.1-17.2-.4-.2h0c-.4-.2-.8-.4-1.2-.7h0ZM142.7,3l-7.5,18.5.9.4,8.4-18.2h-.3c-.5-.2-1-.4-1.5-.7h0ZM138.9,1.7l-5.7,19.2,1,.3,6.6-18.9-1.3-.4h-.6c0-.1,0-.2,0-.2ZM135,.8l-3.8,19.6,1,.2,4.8-19.4h-.2l-.8-.2h-.2c-.2,0-.4-.1-.7-.1h0ZM131,.2l-1.8,19.9c.4,0,.7,0,1,.1l2.9-19.8h-.5c0,0-.2,0-.2,0h-.9c0,0-.1,0-.1,0h-.3ZM127,0v20h1.1l.9-20h-2Z" />
        </g>
        <path class="st2"
            d="M127.1,2c21.9,0,39.7,17.8,39.7,39.7,0,21.9-17.8,39.7-39.7,39.7-21.9,0-39.7-17.8-39.7-39.7,0-21.9,17.8-39.7,39.7-39.7M127.1,0c-23,0-41.7,18.7-41.7,41.7,0,23,18.7,41.7,41.7,41.7,23,0,41.7-18.7,41.7-41.7C168.8,18.7,150.1,0,127.1,0c0,0,0,0,0,0Z" />
        <g class="st1">
            <path class="st0"
                d="M163.1,41.7c0,19.9-16.1,36-36,36s-36-16.1-36-36S107.2,5.7,127.1,5.7s36,16.1,36,36Z" />
        </g>
        <g>
            <path class="st6"
                d="M127.1,69.8c-15.5,0-28.1-12.6-28.1-28.1,0-15.5,12.6-28.1,28.1-28.1,15.5,0,28.1,12.6,28.1,28.1h0c0,15.5-12.6,28.1-28.1,28.1Z" />
            <path class="st7"
                d="M127.1,16.6c13.9,0,25.2,11.2,25.2,25.1,0,13.9-11.2,25.2-25.1,25.2-13.9,0-25.2-11.2-25.2-25.1,0,0,0,0,0,0,0-13.9,11.3-25.1,25.1-25.1M127.1,10.6c-17.2,0-31.2,13.9-31.2,31.1,0,17.2,13.9,31.2,31.1,31.2,17.2,0,31.2-13.9,31.2-31.1,0,0,0,0,0,0,0-17.2-13.9-31.1-31.1-31.1s0,0,0,0h0Z" />
        </g>
    </g>
    <g id="LS_pressed">
        <g>
            <path class="st3"
                d="M83.4,41.7c0,23-18.7,41.7-41.7,41.7S0,64.7,0,41.7C0,18.7,18.7,0,41.7,0c23,0,41.7,18.7,41.7,41.7h0Z" />
            <path class="st5"
                d="M41.7,0h-2l.9,20h1.1V0ZM37.7.2h-.3c-.6,0-1.1.1-1.7.2l2.8,19.8c.3,0,.7,0,1-.1L37.7.2ZM33.7.8h-.5c-.5.1-1,.2-1.4.3l4.7,19.4c.3,0,.7-.2,1-.2L33.7.8h0ZM29.8,1.8l-.8.2h-.1l-.9.3,6.6,18.9c.3-.1.7-.2,1-.3L29.9,1.7h0ZM26.1,3c-.6.2-1.2.5-1.8.8l8.4,18.2c.3-.1.6-.3,1-.4L26.1,3ZM22.4,4.7c-.6.3-1.2.6-1.8,1l10.1,17.2c.3-.2.6-.4.9-.5L22.4,4.7ZM19,6.7c-.6.4-1.1.7-1.6,1.1l11.6,16.2c.3-.2.6-.4.9-.6L19,6.7ZM15.8,9.1c-.5.4-1,.9-1.5,1.3l13.2,15c.3-.2.5-.5.8-.7l-12.4-15.6ZM12.8,11.7c-.3.3-.6.6-.8.8h0l-.4.4,14.4,13.8c.2-.2.5-.5.7-.7l-13.9-14.4h0ZM10,14.6h-.1c-.4.4-.8.9-1.1,1.4h0l15.8,12.3c.2-.3.4-.5.7-.8l-15.2-12.8ZM7.6,17.8l-.2.2h0c-.3.5-.6.9-.9,1.4l16.9,10.7c.2-.3.4-.6.6-.9L7.6,17.8ZM5.4,21.1l-.4.9h0l-.5.9,17.9,9c.2-.3.3-.6.5-.9L5.4,21.1ZM3.6,24.7c0,.1-.1.3-.2.5h0c0,0,0,.1,0,.1h0c-.2.4-.4.8-.5,1.3l18.6,7.3c.1-.3.3-.6.4-1L3.6,24.7ZM2.2,28.4c0,.3-.2.5-.3.8h0c0,.2-.1.4-.2.5l19.2,5.4c0-.3.2-.7.3-1L2.3,27.9v.6ZM1.1,32.3c0,.5-.2,1.1-.3,1.6,0,.1,0,.2,0,.4l19.7,3.5c0-.3.1-.7.2-1L1.1,32.3ZM.4,36.2c0,.4-.1.8-.2,1.3H.2c0,.2,0,.4,0,.6l19.9,1.7c0-.3,0-.7.1-1L.4,36.2ZM0,40.2v1h0v.3h0v.4h20c0,0,0-.2,0-.2v-.8l-20-.7ZM20,43L0,44.2c0,.6,0,1.1.1,1.7H.2c0,0,0,.1,0,.2l19.9-2.1c0-.3,0-.7,0-1h0ZM20.2,45.1L.5,48.2h0c0,.5.2,1,.3,1.6h0v.2l19.6-4c0-.3-.1-.7-.2-1v.2ZM20.6,47.1L1.3,52.1c.2.7.3,1.3.5,1.9l19.2-5.9c-.1-.3-.2-.7-.3-1h0ZM21.2,49.1l-18.8,6.8c.2.6.5,1.2.7,1.9l18.4-7.7c-.1-.3-.3-.6-.4-1h0ZM22,51l-18,8.6v.2h0c.2.4.4.7.6,1.1h0c0,.1.1.2.2.3l17.6-9.5c-.2-.3-.3-.6-.5-.9h0ZM23,52.8l-17.1,10.3.3.5h0c.2.4.5.8.7,1.1l16.6-11.1c-.2-.3-.4-.6-.5-.9h0ZM24.2,54.5l-16.1,11.9.2.3h0c.2.3.5.6.7.9l15.5-12.6c-.2-.3-.4-.5-.6-.8l.3.4ZM25.5,56.2l-14.8,13.4c.4.5.9,1,1.4,1.4l14.2-14.1c-.2-.2-.5-.5-.7-.8h0ZM27,57.7l-13.5,14.7c.2.2.5.5.8.7h0l.7.6,12.8-15.3c-.3-.2-.5-.5-.8-.7h0ZM28.6,59l-12.1,16c.3.2.6.5.9.7l.7.5,11.3-16.5c-.3-.2-.6-.4-.8-.6h0ZM30.3,60.2l-10.5,17h.1c.5.4,1,.7,1.5.9h0l9.7-17.5c-.3-.2-.6-.3-.9-.5h0ZM32.2,61.2l-8.8,18,.3.2h.2c.4.2.8.4,1.3.6l8-18.3c-.3-.1-.6-.3-.9-.4h0ZM34.1,62l-7.1,18.7c.6.2,1.2.4,1.9.7l6.1-19-1-.3h0ZM36.1,62.6l-5.2,19.4h.2c0,0,.2,0,.2,0,.5.1,1,.3,1.5.4l4.2-19.5c-.3,0-.7-.2-1-.2h0ZM38.1,63.1l-3.3,19.7c.5,0,1,.2,1.5.2h.5c0,0,2.4-19.8,2.4-19.8-.3,0-.7,0-1-.2h0ZM40.1,63.3l-1.4,20h2l.5-20h-1.1ZM43.3,63.3h-1s.5,20,.5,20h1.9c0,0,.1,0,.1,0l-1.4-20h0ZM45.4,63.1c-.3,0-.7.1-1,.2l2.4,19.9c.6,0,1.2-.2,1.8-.3h.2l-3.4-19.7h0ZM47.4,62.6c-.3,0-.7.2-1,.2l4.3,19.5h.4l.8-.2h.8c0,0-5.2-19.4-5.2-19.4v-.2ZM49.4,62l-1,.3,6.1,19,.9-.3h.2l.8-.3-7.1-18.7h0ZM51.3,61.2l-1,.4,7.9,18.4c.3-.2.7-.3,1-.5h.2l.6-.3-8.8-18h0ZM53.1,60.2c-.3.2-.6.4-.9.5l9.7,17.5h.2c0,0,0,0,0,0h0l1.4-.8-10.5-17h0ZM54.8,59c-.3.2-.6.4-.8.6l11.3,16.5.8-.5h.1l.6-.4-12-16.1ZM56.4,57.7c-.3.2-.5.5-.8.7l12.8,15.3h.3l1-.9h0l-13.4-15.2ZM57.9,56.2c-.2.3-.5.5-.7.8l14.2,14.1h0l.9-1h0c0-.1.2-.2.3-.3,0,0-14.8-13.5-14.8-13.5ZM59.2,54.6c-.2.3-.4.5-.6.8l15.5,12.6h0c.2-.3.4-.5.6-.8h0c.1-.2.2-.3.3-.5,0,0-15.8-12.2-15.8-12.2ZM60.3,52.8c-.2.3-.4.6-.5.9l16.6,11.1v-.2h.1c.3-.5.6-1,.9-1.4h0s-17.1-10.3-17.1-10.3ZM61.3,51c-.1.3-.3.6-.5.9l17.6,9.5.3-.5.4-.8h0c0-.1.1-.2.2-.3l-18-8.7h0ZM62.1,49.1c-.1.3-.2.6-.4,1l18.5,7.7c0-.2.2-.5.3-.7h0c.1-.4.3-.7.4-1.1l-18.8-7h0ZM62.7,47.1c0,.3-.2.7-.3,1l19.1,5.9c0-.1,0-.3.1-.4h0c.1-.4.2-.8.3-1.2l-19.4-5v-.3ZM63.1,45.1c0,.3-.1.7-.2,1l19.6,4c.1-.6.2-1.2.3-1.7,0,0,0-.2,0-.2l-19.8-3h0ZM63.3,43c0,.3,0,.7,0,1l19.9,2.1c0-.2,0-.5,0-.7h0c0-.4,0-.8,0-1.1h0c0,0-20-1.3-20-1.3ZM83.3,40.2l-20,.7v1.1l20,.2v-.4h0v-.3h0v-.3h0v-.4h0v-.2h0c0,0,0-.2,0-.3h0ZM83,36.2l-19.8,2.6c0,.3,0,.7.1,1l19.9-1.7v-.5h0c0-.5,0-.9-.2-1.4h0ZM82.3,32.2l-19.5,4.5.2,1,19.7-3.6c0-.3-.1-.6-.2-1h0v-.3h0c0,0,0-.3,0-.3v-.4ZM81.2,28.4l-19,6.4c.1.3.2.7.3,1l19.2-5.4h0c-.1-.5-.3-1-.4-1.5h0c0-.1,0-.2,0-.3v-.2ZM79.8,24.7l-18.2,8.2c.1.3.3.6.4,1l18.6-7.3c-.2-.6-.5-1.2-.8-1.9h0ZM78,21.1l-17.4,9.9c.2.3.3.6.5.9l17.8-9c-.3-.5-.5-1-.8-1.5h0v-.2ZM75.9,17.8l-16.4,11.5c.2.3.4.6.6.9l16.9-10.7v-.2h-.1c-.2-.3-.4-.7-.7-1h0l-.3-.4h0ZM73.4,14.6l-15.2,13c.2.3.4.5.7.8l15.8-12.3h-.2c0-.1-.1-.3-.1-.3l-1-1.3ZM70.7,11.7l-13.9,14.4c.2.2.5.5.7.7l14.5-13.7h0c-.5-.5-.9-1-1.4-1.4h0ZM67.6,9l-12.5,15.7c.3.2.5.4.8.7l13.2-15-.2-.2h0c-.4-.4-.8-.7-1.3-1v-.2ZM64.4,6.7l-10.9,16.8c.3.2.6.4.9.6l11.7-16.2-.5-.3h0l-.5-.4h0l-.6-.4h0ZM60.9,4.7l-9.2,17.7.9.5,10.1-17.3-.4-.2h0c-.4-.2-.8-.4-1.2-.7h0ZM57.3,3l-7.5,18.6,1,.4L59.1,3.8h-.3c-.5-.2-1-.4-1.5-.7v-.2ZM53.5,1.7l-5.7,19.2,1,.3,6.6-18.9-1.3-.4h-.6c0-.1,0-.2,0-.2ZM49.6.8l-3.8,19.6,1,.2L51.6,1.2h-.2l-.8-.2h-.2l-.7-.2ZM45.6.2l-1.8,19.9c.3,0,.7,0,1,.1L47.7.4h-.5c0,0-.2,0-.2,0h-.9c0,0,0,0,0,0h-.4ZM41.6,0v20h1l.9-20h-2Z" />
        </g>
        <path class="st9"
            d="M41.7,2c21.9,0,39.7,17.8,39.7,39.7s-17.8,39.7-39.7,39.7S2,63.6,2,41.7C2,19.8,19.8,2,41.7,2M41.7,0C18.7,0,0,18.7,0,41.7c0,23,18.7,41.7,41.7,41.7,23,0,41.7-18.7,41.7-41.7C83.4,18.7,64.7,0,41.7,0c0,0,0,0,0,0Z" />
        <g class="st1">
            <path
                d="M77.7,41.7c0,19.9-16.1,36-36,36S5.7,61.6,5.7,41.7,21.8,5.7,41.7,5.7s36,16.1,36,36Z" />
        </g>
        <g>
            <path class="st8"
                d="M41.7,69.8c-15.5,0-28.1-12.6-28.1-28.1,0-15.5,12.6-28.1,28.1-28.1,15.5,0,28.1,12.6,28.1,28.1h0c0,15.5-12.6,28.1-28.1,28.1Z" />
            <path class="st3"
                d="M41.7,16.6c13.9,0,25.1,11.3,25.1,25.1s-11.3,25.1-25.1,25.1-25.1-11.3-25.1-25.1,0,0,0,0c0-13.9,11.3-25.1,25.1-25.1M41.7,10.6c-17.2,0-31.1,13.9-31.1,31.1,0,17.2,13.9,31.1,31.1,31.1s31.1-13.9,31.1-31.1h0c0-17.2-13.9-31.1-31.1-31.1Z" />
        </g>
    </g>
</svg>