<?xml version="1.0" encoding="UTF-8"?>
<svg id="layer" xmlns="http://www.w3.org/2000/svg" version="1.1" width="99" height="23"
    viewBox="0 0 99 23">
    <defs>
        <style>
            .st0 {
            fill: #f5f5f5;
            }

            .st1 {
            fill: #ededed;
            }
        </style>
    </defs>
    <path class="st0"
        d="M0,15.5c0-.8.4-1.5,1.1-1.9C5.6,10.7,24.4,0,52.6,0s41.1,5.9,45.1,8c.7.4,1.2,1.2,1.2,2,0,0-9.8-2.9-47.5-2.9S0,15.5,0,15.5Z" />
    <path class="st1"
        d="M0,22.4H0v-6.9S13.7,7.1,51.4,7.1s47.5,2.9,47.5,2.9v11h0c-7.7-1.3-21.2-2.6-44.1-2.6S8.9,20.7,0,22.4Z" />
</svg>