<?xml version="1.0" encoding="UTF-8"?>
<svg id="layer" xmlns="http://www.w3.org/2000/svg" version="1.1" width="806" height="599"
    viewBox="0 0 806 599">
    <defs>
        <style>
            .st0 {
            fill: #fff;
            }

            .st1 {
            fill: red;
            }

            .st2 {
            opacity: 0;
            }
        </style>
    </defs>
    <g>
        <path class="st1"
            d="M801.3,418.6c-2.9-15.5-17.7-102.5-32-144.6-9.4-27.7-13.1-53-17-64.9-12-35.7-33-65.7-33-65.7,0,0-9.5-13.1-10.1-16.3s-4.7-8.6-4.7-8.6c0,0-17.4-5.7-62.3-5.7s-53.7,5-53.7,5c-1.7,1.9-3.7,3.5-5.9,4.8-3.5,1.8-11.7,1.7-11.7,1.7h-33.4c-.3,0-.7,0-.9.3-.3.6-.5,1.3-.6,2h-266.1c-.1-.7-.3-1.4-.6-2-.2-.2-.6-.3-.9-.3h-33.4s-8.2.2-11.7-1.7c-2.2-1.2-4.2-2.8-5.9-4.8,0,0-8.8-5-53.7-5s-62.3,5.7-62.3,5.7c0,0-4.1,5.3-4.7,8.6-.6,3.3-10.1,16.3-10.1,16.3,0,0-21,30-33,65.7-4,11.9-7.7,37.2-17,64.9-14.3,42.1-29.1,129.1-32,144.6C.3,441.8,0,508.8,0,508.8c0,0,4.5,53.4,36.2,74.9s56.7,14,56.7,14c0,0,33.1-8.2,57.8-41.9s56.6-129.2,56.6-129.2c1.6-2.1,3.5-3.8,5.7-5.3,1.9-1.3,4-2.2,6.3-2.6h183.7c0,.1,183.7,0,183.7,0,2.3.4,4.4,1.3,6.3,2.6,2.2,1.5,4.1,3.2,5.7,5.3,0,0,31.9,95.4,56.6,129.2s57.8,41.9,57.8,41.9c0,0,25,7.5,56.7-14s36.2-74.9,36.2-74.9c0,0-.3-67-4.7-90.2h0Z" />
        <g class="st2">
            <path class="st0"
                d="M36.6,276c9.4-27.7,13.1-53,17-64.9,12-35.7,33-65.7,33-65.7,0,0,9.5-13.1,10.1-16.3s4.7-8.6,4.7-8.6c0,0,17.4-5.7,62.3-5.7s53.7,5,53.7,5c1.7,1.9,3.7,3.5,5.9,4.8,3.5,1.8,11.7,1.7,11.7,1.7h33.4c.3,0,.7,0,.9.3.3.6.5,1.3.6,2h266.2c0-.7.3-1.4.6-2,.2-.2.6-.3.9-.3h33.4s8.2.2,11.7-1.7c2.2-1.2,4.2-2.8,5.9-4.8,0,0,8.8-5,53.7-5s62.3,5.7,62.3,5.7c0,0,4.1,5.3,4.7,8.6s10.1,16.3,10.1,16.3c0,0,21,30,33,65.7,4,11.9,7.7,37.2,17,64.9,14.3,42.1,29.1,129.1,32,144.6,3.9,20.9,4.6,77.3,4.7,88.3h0c0-.1-.3-67-4.7-90.2-2.9-15.5-17.7-102.5-32-144.6-9.4-27.7-13.1-53-17-64.9-12-35.7-33-65.7-33-65.7,0,0-9.5-13.1-10.1-16.3s-4.7-8.6-4.7-8.6c0,0-17.4-5.7-62.3-5.7s-53.7,5-53.7,5c-1.7,1.9-3.7,3.5-5.9,4.8-3.5,1.8-11.7,1.7-11.7,1.7h-33.4c-.3,0-.7,0-.9.3-.3.6-.5,1.3-.6,2h-266.2c-.1-.7-.3-1.4-.6-2-.2-.2-.6-.3-.9-.3h-33.4s-8.2.2-11.7-1.7c-2.2-1.2-4.2-2.8-5.9-4.8,0,0-8.8-5-53.7-5s-62.3,5.7-62.3,5.7c0,0-4.1,5.3-4.7,8.6-.6,3.3-10.1,16.3-10.1,16.3,0,0-21,30-33,65.7-4,11.9-7.7,37.2-17,64.9-14.3,42.1-29.1,129.1-32,144.6C.3,441.8,0,508.8,0,508.8h0c.1-10.8.7-67.3,4.7-88.2,2.9-15.4,17.6-102.5,31.9-144.6h0Z" />
        </g>
        <path class="st1"
            d="M351.2,360c0-42.2-34.3-76.5-76.5-76.5s-76.5,34.3-76.5,76.5,0,1.3.1,2c0,.7-.1,1.3-.1,2,0,42.2,34.3,76.5,76.5,76.5s76.5-34.3,76.5-76.5,0-1.3-.1-2c0-.7.1-1.4.1-2Z" />
        <path class="st1"
            d="M607.8,360c0-42.2-34.3-76.5-76.5-76.5s-76.5,34.3-76.5,76.5,0,1.3.1,2c0,.7-.1,1.3-.1,2,0,42.2,34.3,76.5,76.5,76.5s76.5-34.3,76.5-76.5v-2c0-.7,0-1.3,0-2Z" />
    </g>
    <g>
        <g>
            <path class="st1"
                d="M697.2,109.9c0-.8-.4-1.5-1.1-1.9-4.5-2.9-23.4-13.6-51.5-13.6s-41.1,5.9-45.1,8c-.7.4-1.2,1.2-1.2,2,0,0,9.8-2.9,47.5-2.9s51.4,8.4,51.4,8.4h0Z" />
            <path class="st1"
                d="M697.1,116.8h0v-6.9s-13.7-8.4-51.4-8.4-47.5,2.9-47.5,2.9v11h0c7.7-1.3,21.2-2.6,44.1-2.6s45.9,2.4,54.8,4h0Z" />
        </g>
        <g>
            <path class="st1"
                d="M108.8,109.9c0-.8.4-1.5,1.1-1.9,4.5-2.9,23.4-13.6,51.5-13.6s41.1,5.9,45.1,8c.7.4,1.2,1.2,1.2,2,0,0-9.8-2.9-47.5-2.9s-51.4,8.4-51.4,8.4Z" />
            <path class="st1"
                d="M108.9,116.8h0v-6.9s13.7-8.4,51.4-8.4,47.5,2.9,47.5,2.9v11h0c-7.7-1.3-21.2-2.6-44.1-2.6s-45.9,2.4-54.8,4Z" />
        </g>
    </g>
</svg>