<?xml version="1.0" encoding="UTF-8"?>
<svg id="layer" xmlns="http://www.w3.org/2000/svg" version="1.1" width="979" height="837"
    viewBox="0 0 979 837">
    <defs>
        <style>
            .st0, .st1, .st2, .st3 {
            stroke-miterlimit: 10;
            }

            .st0, .st1, .st3 {
            stroke: #000;
            }

            .st0, .st2 {
            fill: none;
            }

            .st4 {
            opacity: 0;
            }

            .st5 {
            opacity: .1;
            }

            .st6 {
            fill: #423388;
            }

            .st7, .st1 {
            fill: #fff;
            }

            .st8 {
            fill: #cdcdcd;
            }

            .st9, .st1, .st10, .st11, .st2, .st3 {
            isolation: isolate;
            }

            .st9, .st3, .st12 {
            opacity: 0;
            }

            .st13, .st11 {
            opacity: .6;
            }

            .st14 {
            fill: #c4aa27;
            }

            .st15 {
            fill: #382874;
            }

            .st16 {
            fill: #2c2454;
            }

            .st17 {
            fill: #4dd0ca;
            }

            .st1, .st2 {
            opacity: 0;
            stroke-width: 2px;
            }

            .st10 {
            opacity: .1;
            }

            .st18 {
            opacity: .1;
            }

            .st19 {
            fill: #ed0c1e;
            }

            .st20 {
            opacity: .8;
            }

            .st21 {
            fill: #322366;
            }

            .st22 {
            fill: #314bc4;
            }

            .st2 {
            stroke: #fff;
            }

            .st23 {
            fill: #e7e7e7;
            }

            .st24 {
            fill: #f7f7f7;
            }

            .st25 {
            opacity: 0;
            }

            .st26 {
            fill: #e8e8e8;
            }
        </style>
    </defs>
    <g id="Base">
        <path id="Right_Trigger" class="st26"
            d="M876.8,199.8s-14.2-40.5-47-58.5-66.7-7.6-84.8,3.7l131.8,54.8Z" />
        <path class="st22"
            d="M736,142.8s2-2.8,4.3-3.4,32.9-5.3,79.2,12.1,78.6,45.6,74,54.6c-2.3,3.5-3.4,5-3.4,5l-154.1-68.3Z" />
        <g id="Left_Trigger">
            <path id="Left_Trigger-2" class="st26"
                d="M101.7,199.8s14.2-40.5,47-58.5,66.7-7.6,84.8,3.7l-131.8,54.8Z" />
        </g>
        <path class="st21"
            d="M357.5,406.3l-3.7,38,28-16.3s40.9-11,107.5-11,107.4,11,107.4,11l13.8,4,9-25.7h-262Z" />
        <path class="st6"
            d="M960.8,362.3c-8-17.5-126.8-181.5-126.8-181.5,0,0-160-80.8-344.7-80.8s-344.8,80.8-344.8,80.8c0,0-118.7,164-126.7,181.5S0,647.5,0,647.5c0,0,4.5,73.3,9,100.8s20.5,52,20.5,52c0,0,26.5,51.8,71,32.3s56-111.5,56-111.5c0,0,12.5-84,18-115.5s14-45.5,14-45.5l188.2-136.3c26.2-12,112.6-14,112.6-14,0,0,86.4,2,112.6,14l188.1,136.2s8.5,14,14,45.5,18,115.5,18,115.5c0,0,11.5,92,56,111.5s71-32.3,71-32.3c0,0,16-24.5,20.5-52s9-100.8,9-100.8c0,0-9.7-267.6-17.7-285.1Z" />
        <g>
            <g>
                <path class="st15"
                    d="M521.9,541.7c4.1-36.1,35.7-64.3,51.7-78.8,32.2-29.1,28.6-62.4,27-111.6-2.1-67.7,32.4-107.9,35.6-112.2,3.6-4.8,107-120.3,239-38.9,124.6,89.8,63,224.7,60.4,230.1-1.2,2.4-25,54.8-97.7,83-53,20.6-70.9,61.6-76.7,82.2-.6,4.2-1.5,8.4-2.6,12.5h0c-5.8,20.4-20,43.1-51.6,60.5-74.7,41-140.6-8.7-140.6-8.7,0,0-53.6-36.5-44.5-118.1Z" />
                <path class="st15"
                    d="M529.9,548.8c4.1-35.8,35.7-63.8,51.7-78.2,32.2-28.8,28.6-61.9,27-110.8-2.1-67.1,32.4-107.1,35.6-111.3,3.6-4.8,107-119.4,239-38.5,124.6,89.1,63,222.9,60.4,228.3-1.2,2.4-25,54.3-97.7,82.3-53,20.4-70.9,61.1-76.7,81.6-.6,4.2-1.5,8.3-2.6,12.4h0c-5.8,20.2-20,42.8-51.6,60-74.7,40.7-140.6-8.6-140.6-8.6,0,0-53.6-36.2-44.5-117.2Z" />
            </g>
            <path class="st6"
                d="M528.9,541.8c4.1-35.8,35.7-63.8,51.7-78.2,32.2-28.8,28.6-61.9,27-110.8-2.1-67.1,32.4-107.1,35.6-111.3,3.6-4.8,107-119.4,239-38.5,124.6,89.1,63,222.9,60.4,228.3-1.2,2.4-25,54.3-97.7,82.3-53,20.4-70.9,61.1-76.7,81.6-.6,4.2-1.5,8.3-2.6,12.4h0c-5.8,20.2-20,42.8-51.6,60-74.7,40.7-140.6-8.6-140.6-8.6,0,0-53.6-36.2-44.5-117.2Z" />
        </g>
        <g>
            <g>
                <path class="st15"
                    d="M456.6,541.7c-4.1-36.1-35.7-64.3-51.7-78.8-32.2-29.1-28.6-62.4-27-111.6,2.1-67.7-32.4-107.9-35.6-112.2-3.6-4.8-107-120.3-239-38.9-124.6,89.8-63,224.7-60.4,230.1,1.2,2.4,25,54.8,97.7,83,53,20.6,70.9,61.6,76.7,82.2.6,4.2,1.5,8.4,2.6,12.5h0c5.8,20.4,20,43.1,51.6,60.5,74.7,41,140.6-8.7,140.6-8.7,0,0,53.6-36.5,44.5-118.1Z" />
                <path class="st15"
                    d="M448.6,548.8c-4.1-35.8-35.7-63.8-51.7-78.2-32.2-28.8-28.6-61.9-27-110.8,2.1-67.1-32.4-107.1-35.6-111.3-3.6-4.8-107-119.4-239-38.5-124.6,89.1-63,222.9-60.4,228.3,1.2,2.4,25,54.3,97.7,82.3,53,20.4,70.9,61.1,76.7,81.6.6,4.2,1.5,8.3,2.6,12.4h0c5.8,20.2,20,42.8,51.6,60,74.7,40.7,140.6-8.6,140.6-8.6,0,0,53.6-36.2,44.5-117.2Z" />
            </g>
            <path class="st6"
                d="M449.6,541.8c-4.1-35.8-35.7-63.8-51.7-78.2-32.2-28.8-28.6-61.9-27-110.8,2.1-67.1-32.4-107.1-35.6-111.3-3.6-4.8-107-119.4-239-38.5-124.6,89.1-63,222.9-60.4,228.3,1.2,2.4,25,54.3,97.7,82.3,53,20.4,70.9,61.1,76.7,81.6.6,4.2,1.5,8.3,2.6,12.4h0c5.8,20.2,20,42.8,51.6,60,74.7,40.7,140.6-8.6,140.6-8.6,0,0,53.6-36.2,44.5-117.2Z" />
        </g>
        <g>
            <circle class="st10" cx="327.9" cy="561.9" r="81.3" />
            <circle class="st2" cx="327.9" cy="561.9" r="81.3" />
        </g>
        <circle class="st1" cx="788.2" cy="344.7" r="109.7" />
        <path
            d="M788.2,285.7c-32.6,0-59,26.4-59,59s26.4,59,59,59,59-26.4,59-59h0c-.1-32.6-26.4-58.9-59-59Z" />
        <path
            d="M769.9,206.6h0c-10.1,0-18.6,1.6-22.8,3-10,3.3-31.8,15.6-39.3,30.7-2.9,5.9-3.5,11.6-1.7,17.1,5.7,17,19.7,18.9,25.4,18.9,1.2.1,2.4,0,3.6-.3h.2c5.5-1.7,10.8-4.1,15.8-7,3.4-2.1,7.1-3.7,10.9-4.8,9.5-2.7,23.2-2.8,24.7-2.8h.4c.5-.1,12.7-1.4,19.7-10.6,4.1-5.4,5.5-12.4,4.1-20.7s-6.7-14.7-15.5-18.7c-8.4-4-18.5-4.8-25.5-4.8h0Z" />
        <path
            d="M886.8,269.5c-1.6,0-3.2.2-4.8.6-22.7,5.6-21,27.1-20.9,27.4v.2c1.2,5.6,3.1,11.1,5.7,16.3,1.8,3.6,3.2,7.4,3.9,11.3,2,10.3.7,24.9.7,25.1v.2c0,.3.8,26.4,25.9,26.4s2.2-.1,3.4-.1c7.2-.6,13.1-4.1,17.7-10.3,10.6-14.6,10.3-41.2,7.9-51.6-3.3-13.4-19.2-45.5-39.5-45.5h0Z" />
        <path
            d="M676.5,364.2c-20.7,0-37.5,16.8-37.5,37.5s16.8,37.5,37.5,37.5,37.5-16.8,37.5-37.5h0c0-20.7-16.8-37.5-37.5-37.5Z" />
        <g class="st25">
            <path class="st7"
                d="M189,453.1c-62.4,0-113-50.6-113-113s50.6-113,113-113,113,50.6,113,113c-.1,62.4-50.6,112.9-113,113Z" />
            <path
                d="M189,228.1c61.9,0,112,50.2,112,112s-50.2,112-112,112-112-50.2-112-112,11.8-58.2,32.8-79.2c21-21.1,49.5-32.9,79.2-32.8M189,226.1c-63,0-114,51-114,114s51,114,114,114,114-51,114-114h0c0-63-51-114-114-114Z" />
        </g>
        <g id="Stick_BG">
            <path class="st16"
                d="M184.5,427.7l-55.9-26.7c-.9-.4-1.5-1.1-1.8-2l-21.4-58.7c-.3-.9-.3-1.8,0-2.7l25.6-56.3c.4-.9,1.2-1.6,2.1-1.9l57.6-21c.9-.3,1.9-.3,2.8.1l55.9,26.7c.9.4,1.5,1.1,1.8,2l21.4,58.7c.3.9.3,1.8-.1,2.7l-25.7,56.4c-.4.9-1.2,1.6-2.1,1.9l-57.6,21c-.9.3-1.9.2-2.7-.2Z" />
            <path class="st8"
                d="M184.7,423l-52.6-25.1c-.9-.4-1.5-1.1-1.8-2l-20.1-55.3c-.3-.9-.3-1.8,0-2.7l24.1-53c.4-.9,1.2-1.6,2.1-1.9l54.2-19.7c.9-.3,1.9-.3,2.8.1l52.6,25.1c.9.4,1.5,1.1,1.8,2l20.1,55.3c.3.9.3,1.8-.1,2.7l-24.1,53c-.4.9-1.2,1.6-2.1,1.9l-54.2,19.7c-.9.3-1.9.3-2.8-.1Z" />
            <g class="st5">
                <path
                    d="M219.4,275.7l1.2.6c17.1,8.2,30.3,22.7,36.8,40.5l-9.6-26.4c-.3-.9-1-1.6-1.8-2l-52.6-25.1c-.9-.4-1.9-.5-2.8-.1l-27.1,9.9c18.2-6.8,38.4-5.8,55.9,2.6Z" />
                <path
                    d="M163.5,273l-27.1,9.9c-.9.3-1.7,1-2.1,1.9l-11.9,26.2c8-17.7,22.8-31.4,41.1-38Z" />
                <path
                    d="M158.6,410.5l-1.2-.6c-17.1-8.2-30.3-22.7-36.8-40.5l-.9-2.5c-6.5-17.8-5.7-37.4,2.1-54.7h0l-11.7,25.6c-.4.9-.4,1.8,0,2.7l20.1,55.3c.3.9,1,1.6,1.8,2l52.6,25.1c.9.4,1.9.5,2.8.1l27.1-9.9c-18.2,6.8-38.3,5.8-55.8-2.6Z" />
                <path
                    d="M268,345.7l-10.4-28.6.8,2.2c6.5,17.8,5.7,37.4-2.1,54.7l-.5,1.2c-8,17.7-22.8,31.4-41.1,38h0l27.1-9.9c.9-.3,1.7-1,2.1-1.9l24.1-53c.2-.9.2-1.8,0-2.7Z" />
            </g>
        </g>
        <g id="C_Stick_BG">
            <path class="st9"
                d="M645.8,649.2l-55.8-26.7c-.9-.4-1.5-1.1-1.8-2l-21.4-58.7c-.3-.9-.3-1.8,0-2.7l25.6-56.3c.4-.9,1.2-1.6,2.1-1.9l57.6-21c.9-.3,1.9-.3,2.8.1l55.9,26.7c.9.4,1.5,1.1,1.8,2l21.4,58.7c.3.9.3,1.8,0,2.7l-25.6,56.3c-.4.9-1.2,1.6-2.1,1.9l-57.6,21c-.9.3-2,.3-2.9-.1Z" />
            <path class="st14"
                d="M646,644.4l-52.6-25.1c-.9-.4-1.5-1.1-1.8-2l-20.2-55.3c-.3-.9-.3-1.8,0-2.7l24.1-53c.4-.9,1.2-1.6,2.1-1.9l54.2-19.7c.9-.3,1.9-.3,2.8.1l52.6,25.1c.9.4,1.5,1.1,1.8,2l20.1,55.3c.3.9.3,1.8,0,2.7l-24.1,53c-.4.9-1.2,1.6-2.1,1.9l-54.2,19.7c-.9.4-1.9.3-2.7-.1Z" />
            <g class="st5">
                <path
                    d="M680.8,497.1l1.2.6c17.1,8.2,30.3,22.7,36.8,40.5l-9.6-26.4c-.3-.9-1-1.6-1.8-2l-52.6-25.1c-.9-.4-1.9-.5-2.8-.1l-27.1,9.9c18.2-6.7,38.4-5.8,55.9,2.6Z" />
                <path
                    d="M624.8,494.4l-27.1,9.9c-.9.3-1.7,1-2.1,1.9l-11.9,26.2c8.1-17.6,22.9-31.3,41.1-38Z" />
                <path
                    d="M620,632l-1.2-.6c-17.1-8.2-30.3-22.7-36.8-40.5l-.9-2.5c-6.5-17.8-5.7-37.4,2.1-54.7h0l-11.7,25.6c-.4.9-.4,1.8,0,2.7l20.1,55.3c.3.9,1,1.6,1.8,2l52.6,25.1c.9.4,1.9.5,2.8,0l27.1-9.9c-18.2,6.7-38.3,5.7-55.8-2.6Z" />
                <path
                    d="M729.3,567.1l-10.4-28.6.8,2.2c6.5,17.8,5.7,37.4-2.1,54.7l-.5,1.2c-8,17.7-22.8,31.4-41.1,38h0l27.1-9.9c.9-.3,1.7-1,2.1-1.9l24.1-53c.3-.9.3-1.8,0-2.7Z" />
            </g>
        </g>
        <g>
            <g id="D-Pad_BG" class="st13">
                <path
                    d="M312.4,628.8c-3.9,0-7.1-3.2-7.1-7.1v-35.1c0-1.1-.9-2-2-2h-35.1c-3.9,0-7.1-3.2-7.1-7.1v-31c0-3.9,3.2-7.1,7.1-7.1h35.1c1.1,0,2-.9,2-2v-35.1c0-3.9,3.2-7.1,7.1-7.1h31c3.9,0,7.1,3.2,7.1,7.1v35.1c0,1.1.9,2,2,2h35.1c3.9,0,7.1,3.2,7.1,7.1v31c0,3.9-3.2,7.1-7.1,7.1h-35.1c-1.1,0-2,.9-2,2v35.1c0,3.9-3.2,7.1-7.1,7.1h-31Z" />
                <path
                    d="M343.4,496.6c3.1,0,5.6,2.5,5.6,5.6h0v35.1c0,1.9,1.5,3.5,3.5,3.5h35.1c3.1,0,5.6,2.5,5.6,5.6h0v31c0,3.1-2.5,5.6-5.6,5.6h-35.1c-1.9,0-3.5,1.5-3.5,3.5h0v35.1c0,3.1-2.5,5.6-5.6,5.6h-31c-3.1,0-5.6-2.5-5.6-5.6h0v-35.1c0-1.9-1.5-3.5-3.5-3.5h-35.1c-3.1,0-5.6-2.5-5.6-5.6h0v-31c0-3.1,2.5-5.6,5.6-5.6h35.1c1.9,0,3.5-1.5,3.5-3.5h0v-35.1c0-3.1,2.5-5.6,5.6-5.6h31M343.4,493.6h-31c-4.7,0-8.6,3.9-8.6,8.6h0v35.1c0,.3-.2.5-.5.5h-35.1c-4.7,0-8.6,3.9-8.6,8.6v31c0,4.7,3.9,8.6,8.6,8.6h35.1c.3,0,.5.2.5.5v35.1c0,4.7,3.9,8.6,8.6,8.6h31c4.7,0,8.6-3.9,8.6-8.6v-35.1c0-.3.2-.5.5-.5h35.1c4.7,0,8.6-3.9,8.6-8.6v-31c0-4.7-3.9-8.6-8.6-8.6h-35.1c-.3,0-.5-.2-.5-.5v-35.1c0-4.7-3.9-8.6-8.6-8.6h0Z" />
            </g>
            <path class="st26"
                d="M387.6,540.8h-35.1c-1.9,0-3.5-1.5-3.5-3.5h0v-35.1c0-3.1-2.5-5.6-5.6-5.6h-31c-3.1,0-5.6,2.5-5.6,5.6h0v35.1c0,1.9-1.5,3.5-3.5,3.5h-35.1c-3.1,0-5.6,2.5-5.6,5.6h0v31c0,3.1,2.5,5.6,5.6,5.6h35.1c1.9,0,3.5,1.5,3.5,3.5h0v35.1c0,3.1,2.5,5.6,5.6,5.6h31c3.1,0,5.6-2.5,5.6-5.6h0v-35.1c0-1.9,1.5-3.5,3.5-3.5h35.1c3.1,0,5.6-2.5,5.6-5.6h0v-31c0-3.1-2.5-5.6-5.6-5.6h0Z" />
            <g class="st12">
                <path
                    d="M293.4,572.1c-.5,0-.9-.2-1.3-.4-3-1.5-16.1-8.2-16.2-8.3-.6-.2-1.6-.9-1.7-1.5s1.1-1.3,1.6-1.5c.2,0,13.3-6.9,16.2-8.3.4-.2.8-.3,1.3-.4.3,0,.4,0,.4.2.2.3.2.6.2.9v18.3c0,.3,0,.6-.2.9.1,0,0,0-.3,0Z" />
                <path
                    d="M293.4,552.2h0c.1,0,.2.3.1.5v19.1h-.1c-.4,0-.8,0-1.1-.3-3-1.4-16.1-8.2-16.2-8.3h0c-.7-.3-1.3-.8-1.3-1s.6-.8,1.3-1.1h0c.1,0,13.2-6.9,16.2-8.3.6-.6.9-.6,1.1-.6M293.4,551.2c-.5,0-1,.2-1.5.4-3,1.5-16.2,8.3-16.2,8.3,0,0-1.9.8-1.9,2s1.9,2,1.9,2c0,0,13.2,6.8,16.2,8.3.5.2,1,.4,1.5.4,1.3,0,1.1-1.6,1.1-1.6v-18.2s.2-1.6-1.1-1.6h0Z" />
            </g>
            <g class="st12">
                <path
                    d="M337.2,528h-18.7c-.3,0-.6,0-.8-.3-.2-.3-.1-.9.3-1.7,1.5-3,8.2-16.1,8.3-16.2.2-.6.9-1.7,1.5-1.7s1.3,1.1,1.5,1.6c.1.2,6.9,13.3,8.3,16.2.4.8.5,1.4.3,1.7s-.5.4-.7.4Z" />
                <path
                    d="M327.9,508.7c.2,0,.7.6,1,1.3h0c.1.1,6.9,13.2,8.3,16.2.4.9.3,1.2.4,1.2-.1,0-.3,0-.4,0h-19.1s-.1-.3.3-1.2c1.4-3,8.2-16.1,8.3-16.2h0c.3-.6.7-1,1.2-1.4M327.9,507.7c-1.2,0-2,1.9-2,1.9,0,0-6.8,13.2-8.3,16.2-1.2,2.5.3,2.7.9,2.7h18.6c.6,0,2.1-.2.9-2.7-1.5-3-8.3-16.2-8.3-16.2,0,0-.7-1.9-1.8-1.9h0Z" />
            </g>
            <g class="st12">
                <path
                    d="M362.4,572.1c-.3,0-.4,0-.4-.2-.2-.3-.2-.6-.2-.9v-18.3c0-.3,0-.6.2-.9.1,0,.2-.2.4-.2.5,0,.9.2,1.3.4,3,1.5,16.1,8.2,16.2,8.3.6.2,1.7.9,1.7,1.5s-1.1,1.3-1.6,1.5c-.2,0-13.3,6.9-16.2,8.3-.4.3-.9.5-1.4.5Z" />
                <path
                    d="M362.4,552.2c.4,0,.8,0,1.1.3,3,1.4,16.1,8.2,16.2,8.3h0c.7.3,1.3.8,1.3,1s-.6.8-1.3,1.1h0c-.1,0-13.2,6.9-16.2,8.3-.3.2-.7.3-1.1.3h-.1c0-.2-.1-.3-.1-.5v-18.4c0-.2.1-.3.2-.4h0M362.4,551.2c-1.3,0-1.1,1.6-1.1,1.6v18.2s-.2,1.6,1.1,1.6,1-.2,1.5-.4c3-1.5,16.2-8.3,16.2-8.3,0,0,1.9-.8,1.9-2s-1.9-2-1.9-2c0,0-13.2-6.8-16.2-8.3-.5-.2-1-.4-1.5-.4Z" />
            </g>
            <g class="st12">
                <path
                    d="M327.9,615.6c-.6,0-1.3-1.1-1.5-1.6-.1-.2-6.9-13.3-8.3-16.2-.4-.8-.5-1.4-.3-1.7.2-.2.5-.3.8-.3h18.7c.3,0,.6,0,.8.3.2.3.1.9-.3,1.7-1.5,3-8.2,16.1-8.3,16.2-.3.5-1,1.6-1.6,1.6Z" />
                <path
                    d="M318.5,596.3h19.2s.1.3-.3,1.2c-1.4,3-8.2,16.1-8.3,16.2h0c-.3.7-.8,1.3-1,1.3s-.8-.6-1.1-1.3h0c-.1,0-6.9-13.2-8.3-16.2-.4-.9-.3-1.2-.4-1.2h.2M337.2,595.3h-18.6c-.6,0-2.1.2-.9,2.7,1.5,3,8.3,16.2,8.3,16.2,0,0,.8,1.9,2,1.9s2-1.9,2-1.9c0,0,6.8-13.2,8.3-16.2,1-2.5-.5-2.7-1.1-2.7h0Z" />
            </g>
            <g class="st12">
                <path
                    d="M293.4,551.9c.1,0,.2,0,.3,0,.1.2.2.5.1.7h0v18.2h0c0,.2,0,.6-.1.7-.1,0-.2,0-.3,0-.4,0-.8-.2-1.2-.4-3-1.4-16.1-8.2-16.2-8.3h0c-.6-.3-1.5-.9-1.5-1.3s.9-1.1,1.5-1.3h0c.1,0,13.2-6.9,16.2-8.3.6-.1,1-.2,1.2-.2M293.4,551.2c-.5,0-1,.2-1.5.4-3,1.5-16.2,8.3-16.2,8.3,0,0-1.9.8-1.9,2s1.9,2,1.9,2c0,0,13.2,6.8,16.2,8.3.5.2,1,.4,1.5.4,1.3,0,1.1-1.6,1.1-1.6v-18.2s.2-1.6-1.1-1.6Z" />
            </g>
            <g class="st12">
                <path
                    d="M327.9,508.4c.4,0,1.1.9,1.3,1.5h0c.1.1,6.9,13.2,8.3,16.2.5,1.1.4,1.4.3,1.5-.2,0-.4.2-.6.2h-18.4c-.2,0-.4,0-.6-.2,0,0-.2-.4.3-1.5,1.4-3,8.2-16.1,8.3-16.2h0c0-.6.6-1.5,1.1-1.5M327.9,507.7c-1.2,0-2,1.9-2,1.9,0,0-6.8,13.2-8.3,16.2-1.2,2.5.3,2.7.9,2.7h18.6c.6,0,2.1-.2.9-2.7-1.5-3-8.3-16.2-8.3-16.2,0,0-.7-1.9-1.8-1.9h0Z" />
            </g>
            <g class="st12">
                <path
                    d="M362.4,551.9c.4,0,.8.2,1.2.4,3,1.4,16.1,8.2,16.2,8.3h0c.6.3,1.5.9,1.5,1.3s-.9,1.1-1.5,1.3h0c-.1,0-13.2,6.9-16.2,8.3-.4.2-.8.3-1.2.4-.1,0-.2,0-.3,0-.1-.2-.2-.5-.1-.7h0v-18.2h0c0-.2,0-.5.1-.7,0-.1.1-.3.3-.3h0M362.4,551.2c-1.3,0-1.1,1.6-1.1,1.6v18.2s-.2,1.6,1.1,1.6,1-.2,1.5-.4c3-1.5,16.2-8.3,16.2-8.3,0,0,1.9-.8,1.9-2s-1.9-2-1.9-2c0,0-13.2-6.8-16.2-8.3-.5-.2-1-.4-1.5-.4h0Z" />
            </g>
            <g class="st12">
                <path
                    d="M318.5,596h18.4c.2,0,.4,0,.6.2,0,0,.2.4-.3,1.5-1.4,3-8.2,16.1-8.3,16.2h0c-.3.6-.9,1.5-1.3,1.5s-1.1-.9-1.3-1.5h0c-.1,0-6.9-13.2-8.3-16.2-.5-1.1-.4-1.4-.3-1.5.2-.2.5-.2.8-.2M337.2,595.3h-18.6c-.6,0-2.1.2-.9,2.7,1.5,3,8.3,16.2,8.3,16.2,0,0,.8,1.9,2,1.9s2-1.9,2-1.9c0,0,6.8-13.2,8.3-16.2,1-2.5-.5-2.7-1.1-2.7h0Z" />
            </g>
            <circle class="st3" cx="327.9" cy="561.9" r="13" />
        </g>
        <g id="Start">
            <circle class="st11" cx="489.3" cy="350.1" r="25.1"
                transform="translate(-84.4 531.4) rotate(-53.1)" />
            <circle class="st23" cx="489.3" cy="350" r="21.5" />
        </g>
        <g id="Triggers">
            <g>
                <path class="st26"
                    d="M231.8,90H102.7c-.5,0-1-.4-1-.9h0v-37.1C101.7,23.3,125,0,153.7,0h27.2c28.7,0,52,23.3,52,52v37c0,.6-.5,1-1.1,1Z" />
                <ellipse class="st24" cx="167.2" cy="89.3" rx="65.6" ry="5.3" />
            </g>
            <g>
                <path class="st26"
                    d="M746.7,90h129.2c.5,0,1-.4,1-.9h0v-37.1c0-28.7-23.3-52-52-52h-27.2c-28.7,0-52,23.3-52,52v37c0,.5.4,1,1,1-.1,0,0,0,0,0Z" />
                <ellipse class="st24" cx="811.3" cy="89.3" rx="65.6" ry="5.3" />
            </g>
        </g>
        <g id="Buttons">
            <g>
                <circle class="st17" cx="788.2" cy="344.7" r="57" />
                <g class="st20">
                    <g class="st18">
                        <path
                            d="M785,327.3h6.5l6.9,30.9h-5.5l-1.2-6.5h-6.9l-1.2,6.5h-5.5l6.9-30.9ZM785.7,346.6h5.1l-2.5-13.9h0l-2.5,13.9Z" />
                    </g>
                    <g class="st4">
                        <path class="st0"
                            d="M785,327.3h6.5l6.9,30.9h-5.5l-1.2-6.5h-6.9l-1.2,6.5h-5.5l6.9-30.9ZM785.7,346.6h5.1l-2.5-13.9h0l-2.5,13.9Z" />
                    </g>
                </g>
            </g>
            <g>
                <path class="st23"
                    d="M786.7,259.2h.3s26.5-2.8,22-29c-2.9-17-22.3-21.6-39.1-21.6s-17.6,1.4-22.2,2.9c-13,4.3-46.8,24.4-39.8,45.2,5.2,15.5,17.6,17.5,23.5,17.5s2.1-.1,3.2-.2c14.5-4.6,16.3-8.9,26.8-11.9,9.8-2.7,23.3-2.9,25.3-2.9Z" />
                <g class="st20">
                    <g class="st18">
                        <path
                            d="M754.3,224.4l3.4,11.6h0l3.6-11.6h5.7l-6.7,18.2v11.8h-5.3v-11.8l-6.7-18.2h5.9Z" />
                    </g>
                    <g class="st4">
                        <path class="st0"
                            d="M754.3,224.4l3.4,11.6h0l3.6-11.6h5.7l-6.7,18.2v11.8h-5.3v-11.8l-6.7-18.2h5.9Z" />
                    </g>
                </g>
            </g>
            <g>
                <path class="st23"
                    d="M924.2,315.4c-2.9-12.4-18.2-43.9-37.5-43.9s-2.9.2-4.3.5c-21.3,5.3-19.4,25.2-19.4,25.2,3.4,14.8,7.5,16.9,9.6,27.6s.8,25.7.8,25.7c0,0,.5,24.5,23.9,24.5s2.1,0,3.2-.1c26.5-2.3,26.9-46.2,23.7-59.5Z" />
                <g class="st20">
                    <g class="st18">
                        <path
                            d="M889,306h5.8l3.4,9.7,3.3-9.7h5.7l-6.1,14.8,6.5,15.1h-5.9l-3.8-10.1-3.7,10.1h-5.8l6.5-15.1-5.9-14.8Z" />
                    </g>
                    <g class="st4">
                        <path class="st0"
                            d="M889,306h5.8l3.4,9.7,3.3-9.7h5.7l-6.1,14.8,6.5,15.1h-5.9l-3.8-10.1-3.7,10.1h-5.8l6.5-15.1-5.9-14.8Z" />
                    </g>
                </g>
            </g>
            <g>
                <circle class="st19" cx="676.5" cy="401.7" r="35.5" />
                <g class="st20">
                    <g class="st18">
                        <path
                            d="M668.8,384h8.8c4.3,0,7.4,1.9,7.4,8s-1.3,6-3.9,6.9h0c2.9.6,4.7,3.2,4.7,7.5s-2,9.3-8.1,9.3h-8.9v-31.7ZM674.1,397h1.5c2.9,0,4.2-1.2,4.2-4.2s-1.2-4.1-3.8-4.1h-1.9v8.3ZM674.1,411h2c2.5,0,4.2-1.1,4.2-4.8s-1.7-4.7-4-4.7h-2.3v9.5h0Z" />
                    </g>
                    <g class="st4">
                        <path class="st0"
                            d="M668.8,384h8.8c4.3,0,7.4,1.9,7.4,8s-1.3,6-3.9,6.9h0c2.9.6,4.7,3.2,4.7,7.5s-2,9.3-8.1,9.3h-8.9v-31.7ZM674.1,397h1.5c2.9,0,4.2-1.2,4.2-4.2s-1.2-4.1-3.8-4.1h-1.9v8.3ZM674.1,411h2c2.5,0,4.2-1.1,4.2-4.8s-1.7-4.7-4-4.7h-2.3v9.5h0Z" />
                    </g>
                </g>
            </g>
            <path id="Z_Button" class="st22"
                d="M832.2,179.9c5.8,1.9,11.6,4.2,17.5,6.8,11.3,4.5,22.2,10,32.5,16.4,3.1,2.2,6,4.4,8.8,6.6.6-.8,1.3-2,2.4-3.6,4.6-9-27.8-37.3-74-54.6s-76.9-12.7-79.2-12.1c-1.5.5-2.8,1.5-3.8,2.8,52.5,17.1,87.8,33.8,95.8,37.7Z" />
        </g>
    </g>
</svg>