<?xml version="1.0" encoding="UTF-8"?>
<svg id="layer" xmlns="http://www.w3.org/2000/svg" version="1.1" width="516" height="114"
    viewBox="0 0 516 114">
    <defs>
        <style>
            .st0 {
            fill: #181818;
            }

            .st1 {
            opacity: 0;
            }

            .st2 {
            fill: #fff;
            }

            .st3 {
            fill: none;
            stroke: #fff;
            stroke-miterlimit: 10;
            }

            .st4 {
            fill: #ceb43b;
            }

            .st5 {
            fill: #13e8d3;
            }

            .st6 {
            opacity: .1;
            }

            .st7 {
            opacity: .8;
            }

            .st8 {
            fill: #b22f35;
            }
        </style>
    </defs>
    <g>
        <circle class="st8" cx="57" cy="57" r="57" />
        <g class="st7">
            <g class="st6">
                <path class="st2"
                    d="M53.8,39.7h6.5l6.9,30.9h-5.5l-1.2-6.6h-6.9l-1.2,6.5h-5.5l6.9-30.8ZM54.5,58.9h5.1l-2.5-13.9h0l-2.5,13.9Z" />
            </g>
            <g class="st1">
                <path class="st3"
                    d="M53.8,39.7h6.5l6.9,30.9h-5.5l-1.2-6.6h-6.9l-1.2,6.5h-5.5l6.9-30.8ZM54.5,58.9h5.1l-2.5-13.9h0l-2.5,13.9Z" />
            </g>
        </g>
    </g>
    <g>
        <path class="st0"
            d="M268.7,50.6h.3s26.5-2.8,22-29C288,4.6,268.7,0,251.9,0s-17.6,1.4-22.2,2.9c-13,4.3-46.8,24.4-39.8,45.2,5.2,15.5,17.6,17.5,23.5,17.5,1.1,0,2.1,0,3.2-.2,14.5-4.6,16.3-8.9,26.8-11.9,9.7-2.8,23.3-2.9,25.3-2.9Z" />
        <g class="st7">
            <g class="st6">
                <path class="st2"
                    d="M236.3,15.8l3.4,11.6h.1l3.6-11.6h5.7l-6.7,18.2v11.8h-5.3v-11.8l-6.7-18.2h5.9Z" />
            </g>
            <g class="st1">
                <path class="st3"
                    d="M236.3,15.8l3.4,11.6h.1l3.6-11.6h5.7l-6.7,18.2v11.8h-5.3v-11.8l-6.7-18.2h5.9Z" />
            </g>
        </g>
    </g>
    <g>
        <path class="st0"
            d="M354.7,43.9C351.8,31.5,336.5,0,317.2,0c-1.4,0-2.9.2-4.3.5-21.3,5.3-19.4,25.2-19.4,25.2,3.4,14.8,7.5,16.9,9.6,27.6s.8,25.7.8,25.7c0,0,.5,24.5,23.9,24.5s2.1,0,3.2,0c26.5-2.3,26.9-46.2,23.7-59.5Z" />
        <g class="st7">
            <g class="st6">
                <path class="st2"
                    d="M319.5,34.4h5.8l3.4,9.7,3.3-9.7h5.7l-6.1,14.8,6.5,15.1h-5.9l-3.8-10.1-3.7,10.1h-5.7l6.5-15.1-6-14.8Z" />
            </g>
            <g class="st1">
                <path class="st3"
                    d="M319.5,34.4h5.8l3.4,9.7,3.3-9.7h5.7l-6.1,14.8,6.5,15.1h-5.9l-3.8-10.1-3.7,10.1h-5.7l6.5-15.1-6-14.8Z" />
            </g>
        </g>
    </g>
    <g>
        <circle class="st5" cx="151.5" cy="35.5" r="35.5" />
        <g class="st7">
            <g class="st6">
                <path class="st2"
                    d="M143.8,17.9h8.8c4.3,0,7.4,1.9,7.4,8s-1.3,6-3.9,6.9h0c2.9.6,4.7,3.2,4.7,7.5s-2,9.3-8.1,9.3h-8.9v-31.7ZM149.1,30.8h1.5c2.9,0,4.2-1.2,4.2-4.2s-1.2-4.1-3.8-4.1h-1.9v8.3ZM149.1,44.8h2c2.5,0,4.2-1.1,4.2-4.8s-1.7-4.7-4-4.7h-2.3v9.5h.1Z" />
            </g>
            <g class="st1">
                <path class="st3"
                    d="M143.8,17.9h8.8c4.3,0,7.4,1.9,7.4,8s-1.3,6-3.9,6.9h0c2.9.6,4.7,3.2,4.7,7.5s-2,9.3-8.1,9.3h-8.9v-31.7ZM149.1,30.8h1.5c2.9,0,4.2-1.2,4.2-4.2s-1.2-4.1-3.8-4.1h-1.9v8.3ZM149.1,44.8h2c2.5,0,4.2-1.1,4.2-4.8s-1.7-4.7-4-4.7h-2.3v9.5h.1Z" />
            </g>
        </g>
    </g>
    <path id="Z_Button" class="st4"
        d="M453.8,41.5c5.8,1.9,11.6,4.2,17.5,6.8,11.3,4.5,22.2,10,32.5,16.4,3.1,2.2,6,4.4,8.8,6.6.6-.8,1.3-2,2.4-3.6,4.6-9-27.7-37.2-74-54.6S364.1.4,361.9,1c-1.5.5-2.8,1.5-3.8,2.8,52.3,17.1,87.6,33.8,95.7,37.7Z" />
</svg>