<?xml version="1.0" encoding="UTF-8"?>
<svg id="layer" xmlns="http://www.w3.org/2000/svg" version="1.1" width="84" height="84"
    viewBox="0 0 84 84">
    <defs>
        <style>
            .st0 {
            fill: #ffd710;
            }

            .st1 {
            opacity: .8;
            }

            .st2 {
            opacity: .1;
            }

            .st2, .st3 {
            isolation: isolate;
            }

            .st3 {
            fill: none;
            opacity: 0;
            stroke: #000;
            stroke-miterlimit: 10;
            }

            .st4 {
            opacity: .4;
            }
        </style>
    </defs>
    <g id="C_Stick">
        <g>
            <circle class="st0" cx="42" cy="42" r="41.5" />
            <g class="st4">
                <path
                    d="M42,.5c22.9,0,41.5,18.6,41.5,41.5s-18.6,41.5-41.5,41.5S.5,64.9.5,42C.5,19.1,19.1.5,42,.5M42,0C18.8,0,0,18.8,0,42s18.8,42,42,42,42-18.8,42-42S65.2,0,42,0Z" />
            </g>
        </g>
        <g class="st1">
            <path class="st2"
                d="M48.3,31.2v-5.8c-9.1,0-16.5,7.4-16.5,16.5s7.4,16.5,16.5,16.5v-5.8c-6,0-10.8-4.8-10.8-10.8,0-5.8,4.7-10.6,10.6-10.6,0,0,.1,0,.2,0Z" />
            <path class="st3"
                d="M48.3,31.2v-5.8c-9.1,0-16.5,7.4-16.5,16.5s7.4,16.5,16.5,16.5v-5.8c-6,0-10.8-4.8-10.8-10.8,0-5.8,4.7-10.6,10.6-10.6,0,0,.1,0,.2,0Z" />
        </g>
    </g>
</svg>