<svg id="Layer_1" data-name="Layer 1" xmlns="http://www.w3.org/2000/svg" width="978.5" height="836.99" viewBox="0 0 978.5 836.99">
  <defs>
    <style>
      .cls-1 {
        fill: #ed1c24;
      }

      .cls-2 {
        fill: #fff;
      }
    </style>
  </defs>
  <g id="Layer_1_copy" data-name="Layer 1 copy">
    <g>
      <path class="cls-1" d="M961,363a178.6,178.6,0,0,0-2.2-37.4c-4.6-37.9-22.2-80-67.8-115.9.1-.2.3-.4.4-.6s.1-.1.1-.2.3-.4.4-.6.2-.3.3-.5.2-.3.3-.5c.2-.4.5-.7.8-1.2,3-5.8-9.3-19.4-30.6-33.1-7.6-11.3-18.5-23.7-33-31.7-26.1-14.3-52.9-10.7-71.9-2.9-10.4-.3-16.7.7-17.6,1a.76.76,0,0,0-.5.2.1.1,0,0,0-.1.1c-.1.1-.3.1-.4.2a.1.1,0,0,0-.1.1c-.2.1-.3.2-.5.3l-.1.1a1.38,1.38,0,0,1-.4.3l-.1.1c-.1.1-.3.2-.4.4h0c-.1.1-.3.2-.4.4l-.1.1-.3.3h0l-.3.3C673,121.4,584.4,100,489.3,100c-99.5,0-191.8,23.4-255.8,45h0c-18-11.3-52-21.7-84.8-3.7s-47,58.5-47,58.5h0c-1.8,1-3.6,2.1-5.5,3.2-52.1,37.2-71.7,82.3-76.6,122.5a185.63,185.63,0,0,0-2.2,37.4C9.5,386.3,0,647.5,0,647.5s4.5,73.3,9,100.8,20.5,52,20.5,52,26.5,51.8,71,32.3,56-111.5,56-111.5,12.5-84,18-115.5c4.8-27.2,11.7-41.4,13.6-44.7a122.56,122.56,0,0,1,21.2,41.4,101.83,101.83,0,0,0,2.6,12.4h0c5.8,20.2,20,42.8,51.6,60,74.7,40.7,140.6-8.6,140.6-8.6a64.41,64.41,0,0,0,5.7-4.6c1.5-1,2.3-1.6,2.3-1.6s53.7-36.5,44.5-118.2c-4.1-36.1-35.7-64.3-51.7-78.8-12-10.8-19-22.3-23-34.9.1,0,41-11,107.4-11s107.4,11,107.4,11c-4,12.6-11,24.1-23,34.9-16,14.5-47.7,42.7-51.7,78.8-9.2,81.6,44.5,118.2,44.5,118.2s.8.6,2.3,1.6a64.41,64.41,0,0,0,5.7,4.6s65.9,49.3,140.6,8.6c31.7-17.3,45.8-39.8,51.6-60h0a85.87,85.87,0,0,0,2.6-12.4,119,119,0,0,1,21.2-41.4c1.8,3.3,8.8,17.5,13.6,44.7C809.5,637,822,721,822,721s11.5,92,56,111.5,71-32.3,71-32.3,16-24.5,20.5-52,9-100.8,9-100.8S969,386.3,961,363Z" transform="translate(0 0)"/>
      <path class="cls-1" d="M167.2,94.5c36.2,0,65.6-2.4,65.6-5.3V52a52,52,0,0,0-52-52H153.6a52,52,0,0,0-52,52V89.3C101.7,92.1,131,94.5,167.2,94.5Z" transform="translate(0 0)"/>
      <path class="cls-1" d="M811.3,94.5c36.2,0,65.6-2.4,65.6-5.3V52a52,52,0,0,0-52-52H797.7a52,52,0,0,0-52,52V89.3C745.7,92.1,775,94.5,811.3,94.5Z" transform="translate(0 0)"/>
    </g>
    <g>
      <path class="cls-2" d="M263.4,298.8a101.52,101.52,0,0,1,15.7-1.1c10.1,0,17,2.1,22,6.2,5.2,4.2,8.4,10.6,8.4,19.8,0,9.6-3.3,16.8-8.4,21.4-5.4,4.9-13.9,7.4-24.4,7.4a108.08,108.08,0,0,1-13.3-.7v-53Zm9.9,45.7a43.58,43.58,0,0,0,5.4.2c12.8.1,20.4-7,20.4-20.6.1-11.9-6.8-18.7-19.1-18.7a26.06,26.06,0,0,0-6.7.6v38.5Z" transform="translate(0 0)"/>
      <path class="cls-2" d="M328.4,302.2a5.23,5.23,0,0,1-5.6,5.3,5.12,5.12,0,0,1-5.4-5.3,5.5,5.5,0,0,1,11,0ZM317.9,352V313h9.9v39Z" transform="translate(0 0)"/>
      <path class="cls-2" d="M337.9,343a21.4,21.4,0,0,0,10,2.8c4.3,0,6.2-1.8,6.2-4.3s-1.6-4-6.4-5.7c-7.6-2.6-10.8-6.8-10.7-11.4,0-6.9,5.7-12.2,14.7-12.2a22.74,22.74,0,0,1,10.3,2.3l-1.9,7a17.1,17.1,0,0,0-8.2-2.2c-3.5,0-5.4,1.7-5.4,4.1s1.8,3.7,6.8,5.4c7,2.6,10.3,6.2,10.4,11.9,0,7-5.5,12.2-15.8,12.2a24.79,24.79,0,0,1-11.8-2.7Z" transform="translate(0 0)"/>
      <path class="cls-2" d="M400.4,350.8a27.91,27.91,0,0,1-11,2c-12.2,0-20.1-7.8-20.1-19.8,0-11.7,8-20.8,21.7-20.8a25.09,25.09,0,0,1,9.5,1.8l-1.8,7.4a17.56,17.56,0,0,0-7.4-1.5c-7.5,0-12,5.5-11.9,12.6,0,8,5.2,12.6,11.9,12.6a20,20,0,0,0,7.8-1.5Z" transform="translate(0 0)"/>
      <path class="cls-2" d="M444,332.2c0,14.3-10.1,20.7-20,20.7-11,0-19.5-7.6-19.5-20.1,0-12.8,8.4-20.6,20.2-20.6C436.2,312.2,444,320.3,444,332.2Zm-29.4.4c0,7.5,3.7,13.2,9.7,13.2,5.6,0,9.5-5.5,9.5-13.4,0-6.1-2.7-13-9.4-13C417.4,319.4,414.6,326.1,414.6,332.6Z" transform="translate(0 0)"/>
      <path class="cls-2" d="M452.1,324.6c0-4.5-.1-8.2-.3-11.6h8.6l.5,5.8h.2a14.12,14.12,0,0,1,12.4-6.7c6.8,0,13.8,4.4,13.8,16.7V352h-9.8V330c0-5.6-2.1-9.8-7.4-9.8a8.35,8.35,0,0,0-7.7,5.8,10.8,10.8,0,0,0-.4,3.2V352h-9.9V324.6Z" transform="translate(0 0)"/>
      <path class="cls-2" d="M497.8,324.6c0-4.5-.1-8.2-.3-11.6h8.6l.5,5.8h.2a14.12,14.12,0,0,1,12.4-6.7c6.8,0,13.8,4.4,13.8,16.7V352h-9.8V330c0-5.6-2.1-9.8-7.4-9.8a8.35,8.35,0,0,0-7.7,5.8,10.8,10.8,0,0,0-.4,3.2V352h-9.9V324.6Z" transform="translate(0 0)"/>
      <path class="cls-2" d="M550.5,335.3c.2,7,5.8,10.1,12,10.1a27.65,27.65,0,0,0,10.8-1.8l1.4,6.8a36,36,0,0,1-13.6,2.4c-12.6,0-20.1-7.8-20.1-19.7,0-10.8,6.6-21,19-21,12.6,0,16.8,10.4,16.8,19a35.19,35.19,0,0,1-.3,4.2Zm17.1-6.9c.1-3.6-1.5-9.5-8.1-9.5-6.1,0-8.6,5.5-9,9.5Z" transform="translate(0 0)"/>
      <path class="cls-2" d="M613.5,350.8a27.91,27.91,0,0,1-11,2c-12.2,0-20.1-7.8-20.1-19.8,0-11.7,8-20.8,21.7-20.8a25.09,25.09,0,0,1,9.5,1.8l-1.8,7.4a17.56,17.56,0,0,0-7.4-1.5c-7.5,0-12,5.5-11.9,12.6,0,8,5.2,12.6,11.9,12.6a20,20,0,0,0,7.8-1.5Z" transform="translate(0 0)"/>
      <path class="cls-2" d="M633.2,301.9V313h9.4v7.4h-9.4v17.2c0,4.7,1.3,7.2,5,7.2a11.56,11.56,0,0,0,3.8-.5l.2,7.5a20.2,20.2,0,0,1-7.1,1,11.54,11.54,0,0,1-8.5-3.2c-2.1-2.2-3-5.8-3-10.9V320.4H618V313h5.6v-8.8Z" transform="translate(0 0)"/>
      <path class="cls-2" d="M656.5,335.3c.2,7,5.8,10.1,12,10.1a27.65,27.65,0,0,0,10.8-1.8l1.4,6.8a36,36,0,0,1-13.6,2.4c-12.6,0-20.1-7.8-20.1-19.7,0-10.8,6.6-21,19-21,12.6,0,16.8,10.4,16.8,19a35.19,35.19,0,0,1-.3,4.2Zm17.1-6.9c.1-3.6-1.5-9.5-8.1-9.5-6.1,0-8.6,5.5-9,9.5Z" transform="translate(0 0)"/>
      <path class="cls-2" d="M726.8,295.2V341c0,4,.2,8.3.3,11h-8.8l-.4-6.2h-.2c-2.3,4.3-7,7-12.7,7-9.3,0-16.6-7.9-16.6-19.9-.1-13,8.1-20.8,17.4-20.8,5.4,0,9.2,2.2,11,5.1h.2V295.1h9.8Zm-9.9,34.1a22.75,22.75,0,0,0-.2-2.6,8.72,8.72,0,0,0-8.5-7c-6.3,0-9.8,5.6-9.8,12.9,0,7.1,3.5,12.3,9.8,12.3a8.71,8.71,0,0,0,8.5-7,12.92,12.92,0,0,0,.3-2.9l-.1-5.7Z" transform="translate(0 0)"/>
    </g>
  </g>
</svg>
