<?xml version="1.0" encoding="UTF-8"?>
<svg id="layer" xmlns="http://www.w3.org/2000/svg" version="1.1" width="121" height="121"
    viewBox="0 0 121 121">
    <defs>
        <style>
            .st0 {
            opacity: .4;
            }

            .st1 {
            opacity: .3;
            }

            .st2 {
            fill: #e8e8e8;
            }
        </style>
    </defs>
    <g id="Left_Stick">
        <circle class="st2" cx="60.5" cy="60.5" r="60" />
        <g class="st0">
            <path
                d="M60.5.5c33.1,0,60,26.9,60,60s-26.9,60-60,60S.5,93.6.5,60.5,27.4.5,60.5.5M60.5,0C27.1,0,0,27.1,0,60.5s27.1,60.5,60.5,60.5,60.5-27.1,60.5-60.5C121,27.1,93.9,0,60.5,0Z" />
        </g>
        <g class="st1">
            <path
                d="M60.5,42.7c9.8,0,17.8,8,17.8,17.8s-8,17.8-17.8,17.8-17.8-8-17.8-17.8c0-9.8,8-17.8,17.8-17.8M60.5,72.9c6.8,0,12.4-5.6,12.4-12.4,0-6.8-5.6-12.4-12.4-12.4s-12.4,5.6-12.4,12.4,5.6,12.4,12.4,12.4h0M60.5,42.2c-10.1,0-18.3,8.2-18.3,18.3s8.2,18.3,18.3,18.3,18.3-8.2,18.3-18.3c0-10.1-8.2-18.3-18.3-18.3ZM60.5,72.4c-6.6,0-11.9-5.3-11.9-11.9s5.3-11.9,11.9-11.9,11.9,5.3,11.9,11.9c0,6.6-5.3,11.9-11.9,11.9Z" />
            <path
                d="M60.5,27.8c18.1,0,32.7,14.6,32.7,32.7s-14.6,32.7-32.7,32.7-32.7-14.6-32.7-32.7c0-18.1,14.6-32.7,32.7-32.7M60.5,88.1c15.2,0,27.6-12.4,27.6-27.6s-12.4-27.6-27.6-27.6-27.6,12.4-27.6,27.6h0c0,15.2,12.3,27.6,27.6,27.6h0M60.5,27.3c-18.3,0-33.2,14.9-33.2,33.2s14.9,33.2,33.2,33.2,33.2-14.9,33.2-33.2h0c0-18.3-14.9-33.2-33.2-33.2ZM60.5,87.6c-15,0-27.1-12.1-27.1-27.1s12.1-27.1,27.1-27.1,27.1,12.1,27.1,27.1h0c0,15-12.1,27.1-27.1,27.1Z" />
            <path
                d="M60.5,11.4c27.1,0,49.1,22,49.1,49.1s-22,49.1-49.1,49.1S11.4,87.6,11.4,60.5c0-27.1,22-49.1,49.1-49.1M60.5,104.2c24.1,0,43.7-19.6,43.7-43.7s-19.6-43.7-43.7-43.7S16.8,36.4,16.8,60.5c0,24.1,19.6,43.7,43.7,43.7M60.5,10.9c-27.4,0-49.6,22.2-49.6,49.6s22.2,49.6,49.6,49.6,49.6-22.2,49.6-49.6h0c0-27.4-22.2-49.6-49.6-49.6ZM60.5,103.7c-23.9,0-43.2-19.3-43.2-43.2,0-23.9,19.3-43.2,43.2-43.2,23.9,0,43.2,19.3,43.2,43.2h0c0,23.8-19.4,43.2-43.2,43.2Z" />
        </g>
        <g>
            <path class="st2"
                d="M60.5,27.8c-18.1,0-32.7,14.6-32.7,32.7s14.6,32.7,32.7,32.7,32.7-14.6,32.7-32.7h0c0-18.1-14.6-32.7-32.7-32.7ZM60.5,88.1c-15.2,0-27.6-12.4-27.6-27.6s12.4-27.6,27.6-27.6,27.6,12.4,27.6,27.6h0c0,15.2-12.3,27.6-27.6,27.6h0Z" />
            <path class="st2"
                d="M60.5,11.4c-27.1,0-49.1,22-49.1,49.1s22,49.1,49.1,49.1,49.1-22,49.1-49.1c0-27.1-22-49.1-49.1-49.1ZM60.5,104.2c-24.1,0-43.7-19.6-43.7-43.7S36.4,16.8,60.5,16.8s43.7,19.6,43.7,43.7h0c0,24.1-19.6,43.7-43.7,43.7Z" />
        </g>
    </g>
</svg>