<?xml version="1.0" encoding="UTF-8"?>
<svg id="layer" xmlns="http://www.w3.org/2000/svg" version="1.1" width="1985" height="221"
    viewBox="0 0 1985 221">
    <defs>
        <style>
            .st0 {
            opacity: .1;
            }

            .st0, .st1 {
            isolation: isolate;
            }

            .st1 {
            fill: #fff;
            opacity: 0;
            }

            .st2 {
            fill: #c1272d;
            }

            .st3 {
            fill: #1a1a1a;
            }
        </style>
    </defs>
    <g id="Top_Right">
        <path class="st3"
            d="M1579.4,37.3c-2,2.1-2,5.4,0,7.4,0,0,0,0,0,0l71,69.2c2,2.1,5.3,2.1,7.4,0s2.1-5.3,0-7.4h0l-71.1-69.4c-2.1-2-5.4-1.9-7.5.1Z" />
        <circle class="st2" cx="1613.1" cy="70.3" r="53" />
        <path class="st0"
            d="M1649.2,43.1c6.5,34.4-16.1,67.6-50.5,74.2,0,0,0,0,0,0-2.6.5-5.3.8-7.9,1,26.5,12.4,58,1,70.4-25.4,10.9-23.1,3.6-50.7-17.2-65.6,2.5,5,4.3,10.3,5.3,15.8Z" />
    </g>
    <g id="Top_Right-2">
        <path class="st3"
            d="M1329.1,111.6c0,2.8,2.3,5.1,5.1,5.1,0,0,.1,0,.2,0l99.1-1.2c2.9,0,5.2-2.2,5.3-5.1,0-2.9-2.2-5.2-5.1-5.3l-99.4,1.2c-2.9,0-5.2,2.4-5.2,5.3h0Z" />
        <circle class="st2" cx="1376.3" cy="111" r="53" />
        <path class="st0"
            d="M1382.6,66.3c29,19.7,36.5,59.1,16.8,88.1,0,0,0,0,0,.1-1.5,2.2-3.2,4.3-4.9,6.3,27.5-9.9,41.8-40.3,31.9-67.8-8.7-24.1-33.5-38.6-58.8-34.3,5.4,1.8,10.4,4.4,15.1,7.6Z" />
    </g>
    <g id="Top_Right-3">
        <path class="st3"
            d="M1140.1,185.1c2.1,2,5.4,2,7.4,0,0,0,0,0,0,0l69.2-71c2.1-2,2.1-5.3,0-7.4s-5.3-2.1-7.4,0l-69.4,71.1c-2,2.1-2,5.4,0,7.5Z" />
        <circle class="st2" cx="1173" cy="151.3" r="53" />
        <path class="st0"
            d="M1145.8,115.2c34.4-6.5,67.6,16.1,74.2,50.5,0,0,0,0,0,0,.5,2.6.8,5.3,1,7.9,12.4-26.5,1-58-25.4-70.4-23.1-10.9-50.7-3.6-65.6,17.2,5-2.4,10.3-4.2,15.8-5.3Z" />
    </g>
    <g>
        <path class="st3"
            d="M993.8,214.7c2.8,0,5.1-2.3,5.1-5.1,0,0,0-.1,0-.2l-1.2-99.1c0-2.9-2.2-5.2-5.1-5.3s-5.2,2.2-5.3,5.1h0l1.2,99.4c0,2.8,2.2,5.2,5.1,5.2,0,0,.2,0,.2,0Z" />
        <circle class="st2" cx="993.2" cy="167.6" r="53"
            transform="translate(520.1 1056.9) rotate(-71.6)" />
        <path class="st0"
            d="M948.5,161.3c19.7-29,59.1-36.5,88.1-16.8,0,0,0,0,.1,0,2.2,1.5,4.3,3.2,6.3,4.9-9.9-27.5-40.3-41.8-67.8-31.9-24.1,8.7-38.6,33.5-34.3,58.8,1.8-5.4,4.4-10.5,7.6-15.1Z" />
    </g>
    <g id="Top_Right-4">
        <path class="st3"
            d="M846.7,183.2c2-2.1,2-5.4,0-7.4,0,0,0,0,0,0l-71-69.2c-2-2.1-5.3-2.1-7.4,0-2.1,2-2.1,5.3,0,7.4h0l71.1,69.4c2.1,2,5.4,2,7.5-.1Z" />
        <circle class="st2" cx="812.9" cy="150.3" r="53" />
        <path class="st0"
            d="M776.9,177.5c-6.5-34.4,16.1-67.6,50.5-74.2,0,0,0,0,0,0,2.6-.5,5.3-.8,7.9-1-26.5-12.4-58-1-70.4,25.4-10.9,23.1-3.6,50.7,17.2,65.6-2.6-5-4.3-10.3-5.3-15.8Z" />
    </g>
    <g id="Top_Right-5">
        <path class="st3"
            d="M655.8,109c0-2.8-2.3-5.1-5.1-5.1,0,0-.1,0-.2,0l-99.1,1.2c-2.9,0-5.2,2.2-5.3,5.1,0,2.9,2.2,5.2,5.1,5.3l99.4-1.2c2.9,0,5.2-2.3,5.2-5.2,0,0,0,0,0-.1Z" />
        <circle class="st2" cx="608.7" cy="109.6" r="53" />
        <path class="st0"
            d="M602.4,154.3c-29-19.7-36.5-59.1-16.8-88.1,0,0,0,0,0-.1,1.5-2.2,3.2-4.3,4.9-6.3-27.5,9.9-41.8,40.3-31.9,67.8,8.7,24.1,33.5,38.6,58.8,34.3-5.3-1.9-10.4-4.4-15.1-7.6Z" />
    </g>
    <g id="Top_Right-6">
        <path class="st3"
            d="M403.8,35.5c-2.1-2-5.4-2-7.4,0,0,0,0,0,0,0l-69.2,71c-2.1,2-2.1,5.3-.1,7.4s5.3,2.1,7.4.1h0l69.4-71.1c2-2.1,1.9-5.4-.1-7.5Z" />
        <circle class="st2" cx="370.8" cy="69.3" r="53" />
        <path class="st0"
            d="M398,105.3c-34.4,6.5-67.6-16.1-74.2-50.5,0,0,0,0,0,0-.5-2.6-.8-5.3-1-7.9-12.4,26.5-1,58,25.4,70.4,23.1,10.9,50.7,3.6,65.6-17.2-5,2.6-10.3,4.4-15.8,5.3Z" />
    </g>
    <g id="Top_Right-7">
        <path class="st3"
            d="M1873.4,5.8c-2.8,0-5.1,2.3-5.1,5.1,0,0,0,.1,0,.2l1.2,99.1c0,2.9,2.2,5.2,5.1,5.3,2.9,0,5.2-2.2,5.3-5.1l-1.2-99.4c0-2.9-2.4-5.2-5.3-5.2Z" />
        <circle class="st2" cx="1874" cy="53" r="53" />
        <ellipse class="st1" cx="1864.1" cy="13.9" rx="12.4" ry="5.2"
            transform="translate(77.2 545) rotate(-17)" />
        <path class="st0"
            d="M1918.7,59.3c-19.7,29-59.1,36.5-88.1,16.8,0,0,0,0-.1,0-2.2-1.5-4.3-3.2-6.3-4.9,9.9,27.5,40.3,41.8,67.8,31.9,24.1-8.7,38.6-33.5,34.3-58.8-1.9,5.3-4.4,10.4-7.6,15.1Z" />
    </g>
    <g>
        <circle class="st2" cx="110.3" cy="110.3" r="53" />
        <ellipse class="st1" cx="130.8" cy="75.7" rx="5.2" ry="12.4"
            transform="translate(2.5 155.6) rotate(-62)" />
        <path class="st0"
            d="M137.5,146.3c-34.4,6.5-67.6-16.1-74.2-50.5,0,0,0,0,0,0-.5-2.6-.8-5.3-1-7.9-12.4,26.5-1,58,25.4,70.4,23.1,10.9,50.7,3.6,65.6-17.2-5,2.6-10.3,4.3-15.8,5.3Z" />
    </g>
</svg>