<?xml version="1.0" encoding="UTF-8"?>
<svg id="layer" xmlns="http://www.w3.org/2000/svg" version="1.1" width="750" height="630"
    viewBox="0 0 750 630">
    <defs>
        <style>
            .st0 {
            fill: #141414;
            }

            .st1 {
            fill: #1a1615;
            }

            .st2 {
            fill: #050505;
            }

            .st3 {
            fill: #0d0808;
            }

            .st4 {
            fill: none;
            }

            .st5 {
            fill: #1c1c1c;
            }

            .st6 {
            fill: #171717;
            }

            .st7 {
            fill: #120b0b;
            }

            .st8 {
            stroke: #120b0b;
            }

            .st8, .st9 {
            stroke-width: 2px;
            }

            .st8, .st9, .st10 {
            stroke-miterlimit: 10;
            }

            .st11 {
            fill: #0d0d0d;
            }

            .st9 {
            fill: #080808;
            stroke: #140c0c;
            }

            .st12 {
            fill: #0f0f0f;
            }

            .st13 {
            fill: #1a1a1a;
            }

            .st14 {
            fill: #191919;
            }

            .st15 {
            fill: #6d6b6c;
            }

            .st16 {
            fill: #292929;
            }

            .st17, .st10 {
            fill: #0a0a0a;
            }

            .st18 {
            fill: #242424;
            }

            .st10 {
            stroke: #000;
            }
        </style>
    </defs>
    <g id="Layer_1-2">
        <path
            d="M664.4,214c-6.7-16.7-20.5-20.9-21.8-22-11.7-10.3-2.5-21.2-20-30.7-18.3-9.9-72-37-114.2-31.4-9.2,1.2-27.8,17.6-41.2,17.6h-184.3c-13.4,0-32-16.4-41.2-17.6-42.2-5.6-95.9,21.5-114.2,31.4-17.5,9.5-8.2,20.4-19.9,30.7-1.3,1.1-15.1,5.3-21.8,22C22.9,370-1.7,469.1,0,529.1c2.9,94.4,76.6,101.3,76.6,101.3,37-8.6,111.6-129.1,168.5-129.1h259.6c57,0,131.5,120.5,168.5,129.1,0,0,73.7-6.9,76.6-101.3,1.9-60-22.8-159.1-85.5-315.1Z" />
        <g>
            <path class="st4" d="M106.2,192.6c.4-.2.8-.4,1.2-.6-.4.2-.8.4-1.2.6Z" />
            <path class="st4" d="M642.6,192c.5.3,1,.6,1.5.8-.5-.3-1-.6-1.5-.8Z" />
            <path class="st2"
                d="M664.4,214c-2.6-6.7-7.1-12.5-12.9-16.8-2.3-1.7-4.8-3.1-7.4-4.4-.5-.2-1-.5-1.5-.8-33.6-18-97.5-38.2-117.5-34.3-26,5-65.5,79.7-89,79.7h-121c-23.4,0-63-74.7-89-79.7-19.6-3.8-85.6,16.5-118.8,34.3-.4.2-.8.5-1.2.6-3.1,1.4-6,3.2-8.7,5.3-5.3,4.2-9.4,9.8-11.8,16.1C22.9,370-1.7,469.1,0,529.1c2.9,94.4,76.6,101.3,76.6,101.3,37-8.6,111.6-129.1,168.5-129.1h259.6c57,0,131.5,120.5,168.5,129.1,0,0,73.7-6.9,76.6-101.3,1.9-60-22.8-159.1-85.5-315.1Z" />
        </g>
        <line class="st4" x1="107.5" y1="192" x2="107.5" y2="193.5" />
        <line class="st4" x1="642.5" y1="191.5" x2="642.5" y2="192.4" />
        <g id="Dpad">
            <g>
                <path
                    d="M277.7,462.1c-33.5,0-60.6-27.1-60.6-60.6,0-33.5,27.1-60.6,60.6-60.6,33.5,0,60.6,27.1,60.6,60.6h0c0,33.5-27.2,60.6-60.6,60.6Z" />
                <path class="st3"
                    d="M277.7,341.9c32.9,0,59.6,26.7,59.6,59.7,0,32.9-26.7,59.6-59.7,59.6-32.9,0-59.6-26.7-59.6-59.6,0-32.9,26.7-59.6,59.6-59.6M277.6,339.9c-34,0-61.6,27.6-61.6,61.6,0,34,27.6,61.6,61.6,61.6,34,0,61.6-27.6,61.6-61.6h0c0-34-27.6-61.6-61.6-61.6Z" />
            </g>
            <g>
                <g>
                    <path class="st0"
                        d="M277.7,452.7c-7.1,0-12.7-1.3-13-3.1,0,0,0-.1,0-.1v-34.4c0-.3-.2-.5-.5-.5h-34.4c-1.8,0-3.2-5.7-3.2-13.1s1.4-13.1,3.2-13.1h34.4c.3,0,.5-.2.5-.5v-34.4s0,0,0-.1v-.2c0,0,.1-.1.1-.1.5-.8,2.1-1.5,4.5-2l.9-.2c.3,0,.7-.1,1-.1h1.1c0-.1,1-.2,1-.2h1c0,0,2.4-.2,2.4-.2h1c7.3,0,13.1,1.4,13.1,3.2v34.4c0,.3.2.5.5.5h34.4c1.8,0,3.2,5.7,3.2,13.1s-1.4,13.1-3.2,13.1h-34.4c-.3,0-.5.2-.5.5v34.4s0,.1,0,.1c-.3,1.7-5.9,3-13.1,3Z" />
                    <path class="st7"
                        d="M277.7,350.8c8.1,0,12.6,1.6,12.6,2.7v34.4c0,.6.4,1,1,1h34.4c1.1,0,2.7,4.8,2.7,12.5s-1.6,12.6-2.7,12.6h-34.4c-.6,0-1,.4-1,1v34.5c-.2,1.1-4.7,2.7-12.6,2.7s-12.4-1.5-12.6-2.7v-34.5c0-.6-.4-1-1-1h-34.4c-1.1,0-2.8-4.8-2.8-12.6s1.6-12.6,2.8-12.6h34.4c.6,0,1-.4,1-1v-34.5h0s0,0,0-.1h0c.1-.3.9-1.2,4.2-1.8h0c.3,0,.5-.1.8-.2h0c.3,0,.5,0,.8-.1h1.1c0-.1,1-.2,1-.2h1c0,0,.1,0,.1,0h3.3M277.6,349.9h-4.5c0,0-1,.2-1,.2h-1c0,.1,0,.1,0,.1-.3,0-.6,0-.9.1h0l-.9.2h0c-2.4.5-4.2,1.2-4.9,2.2,0,0,0,0-.1.2h0c0,0,0,.1,0,.2h0s0,0,0,.1c0,0,0,.1,0,.2v34.4h-34.5c-5,0-5,27.1,0,27.1h34.4v34.4h0c0,0,0,.2,0,.2.4,2.3,7,3.5,13.5,3.5s13.1-1.2,13.5-3.5c0,0,0-.2,0-.2v-34.4h34.4c5,0,5-27.1,0-27.1h-34.4v-34.4h0c0-2.5-6.8-3.7-13.6-3.7v.2Z" />
                </g>
                <path class="st18" d="M264.1,387.9l-3.6-3.6h-30.8c-1,0-2,.3-2.8.9l2.8,2.8h34.4Z" />
                <path class="st16"
                    d="M229.7,387.9h0l-2.8-2.8c-1.4.9-2.7,2.7-3.5,6.1-1.4,6.7-1.4,13.7,0,20.4.9,3.4,2.2,5.2,3.5,6.1l2.8-2.8c-5,0-5-27.1,0-27.1Z" />
                <path class="st18"
                    d="M269.2,350.5h0l.9-.2h0c.3,0,.6-.1.9-.1h1.1c0-.1,1-.2,1-.2h1c0,0,.1,0,.1,0h3.3c6.8,0,13.6,1.2,13.6,3.7l2.8-2.8c-.9-1.4-2.7-2.7-6.1-3.5-6.7-1.4-13.6-1.4-20.4,0-2.9.7-4.7,1.8-5.7,3l2.6,2.6c.6-1.2,2.4-1.9,4.8-2.4Z" />
                <path class="st14"
                    d="M325.6,387.9l2.8-2.8c-.8-.5-1.8-.8-2.8-.9h-30.8l-3.6,3.6h34.4Z" />
                <path class="st5"
                    d="M291.2,353.5h0v34.4l3.6-3.6h0v-30.8c0-1-.3-2-.9-2.8l-2.8,2.8h0Z" />
                <path class="st16"
                    d="M264.1,353.5c0,0,0-.1,0-.2h0v-.3h0c0,0,0-.1.1-.2l-2.6-2.6c-.8.9-1.3,2.1-1.3,3.3v30.8l3.6,3.6v-34.5Z" />
                <path class="st6"
                    d="M325.6,415h-34.4l3.6,3.6h32.3l.3-.4c.3-.1.6-.3.9-.5l-2.8-2.8h0Z" />
                <path class="st12" d="M291.2,449.5l2.8,2.8c.5-.8.8-1.8.8-2.8v-30.8l-3.6-3.6v34.4Z" />
                <path class="st12"
                    d="M332,391.3c-.8-3.4-2.2-5.2-3.5-6.1l-2.8,2.8c5,0,5,27.1,0,27.1l2.8,2.8c1.4-.9,2.7-2.8,3.5-6.1.7-3.3,1.1-6.8,1-10.2,0-3.4-.3-6.8-1-10.2Z" />
                <path class="st6"
                    d="M291.2,449.7c-.4,2.3-7,3.5-13.5,3.5s-13.1-1.2-13.5-3.5c0,0,0-.2,0-.2l-2.8,2.8c.9,1.4,2.8,2.7,6.2,3.5,6.7,1.4,13.6,1.4,20.4,0,3.4-.8,5.2-2.2,6.1-3.5l-2.8-2.8c0,0,0,.1,0,.2Z" />
                <path class="st5" d="M264.1,449.5h0v-34.4l-3.6,3.6v31.9c.2.6.5,1.2.8,1.7l2.8-2.8Z" />
                <path class="st13" d="M229.7,415l-2.8,2.8c.8.5,1.8.8,2.8.9h30.8l3.6-3.6h-34.4Z" />
            </g>
        </g>
        <g id="Menu_Key">
            <path class="st1"
                d="M448.9,280.4c0,10.4-8.4,18.8-18.8,18.8s-18.8-8.4-18.8-18.8,8.4-18.8,18.8-18.8h0c10.4,0,18.8,8.4,18.8,18.8Z" />
            <g>
                <path class="st10"
                    d="M446.2,280.4c0,8.9-7.2,16.1-16.1,16.1s-16.1-7.2-16.1-16.1,7.2-16.1,16.1-16.1h0c8.9,0,16.1,7.2,16.1,16.1Z" />
                <g>
                    <rect class="st15" x="422.9" y="275.7" width="14.4" height="1.5" />
                    <rect class="st15" x="422.9" y="279.7" width="14.4" height="1.5" />
                    <rect class="st15" x="422.9" y="283.5" width="14.4" height="1.5" />
                </g>
            </g>
        </g>
        <g id="Switcher_Key">
            <path class="st1"
                d="M340.9,280.4c0,10.4-8.4,18.8-18.8,18.8s-18.8-8.4-18.8-18.8,8.4-18.8,18.8-18.8c10.4,0,18.8,8.4,18.8,18.8h0Z" />
            <g>
                <path class="st10"
                    d="M338.2,280.4c0,8.9-7.2,16.1-16.1,16.1-8.9,0-16.1-7.2-16.1-16.1,0-8.9,7.2-16.1,16.1-16.1,8.9,0,16.1,7.2,16.1,16.1,0,0,0,0,0,0Z" />
                <g>
                    <polygon class="st15"
                        points="319.6 280.3 316.6 280.3 316.6 276.5 322 276.5 322 277.8 323.8 277.8 323.8 274.7 315 274.7 315 282.1 319.6 282.1 319.6 280.3" />
                    <path class="st15" d="M320.4,278.4v7.6h9v-7.6h-9ZM327.5,284.2h-5.5v-4h5.5v4Z" />
                </g>
            </g>
        </g>
        <g id="Left_Stick">
            <path class="st9"
                d="M185.5,351.5c-37.4,0-67.7-30.3-67.7-67.7s30.3-67.7,67.7-67.7c37.4,0,67.7,30.3,67.7,67.7,0,37.4-30.3,67.7-67.7,67.7Z" />
            <path class="st8"
                d="M241.6,279.9c0,31-25.1,56.1-56.1,56.1-31,0-56.1-25.1-56.1-56.1s25.1-56.1,56.1-56.1c31,0,56.1,25.1,56.1,56.1h0Z" />
        </g>
        <g id="Right_Stick">
            <path class="st9"
                d="M473,465.5c-37.4,0-67.7-30.3-67.7-67.7,0-37.4,30.3-67.7,67.7-67.7,37.4,0,67.7,30.3,67.7,67.7h0c0,37.4-30.3,67.7-67.7,67.7Z" />
            <path class="st8"
                d="M529.2,393.8c0,31-25.1,56.1-56.1,56.1-31,0-56.1-25.1-56.1-56.1,0-31,25.1-56.1,56-56.1,31,0,56.1,25.1,56.1,56,0,0,0,0,0,0Z" />
        </g>
        <g id="Button_Base">
            <g id="A">
                <path class="st17"
                    d="M566.8,355.3c-13.9,0-25.2-11.3-25.2-25.2s11.3-25.2,25.2-25.2c13.9,0,25.2,11.3,25.2,25.2,0,13.9-11.3,25.2-25.2,25.2Z" />
                <path class="st1"
                    d="M566.8,306.4c13.1,0,23.7,10.6,23.7,23.7,0,13.1-10.6,23.7-23.7,23.7-13.1,0-23.7-10.6-23.7-23.7h0c0-13.1,10.6-23.7,23.7-23.7h0M566.8,303.4c-14.7,0-26.7,12-26.7,26.7,0,14.7,12,26.7,26.7,26.7,14.7,0,26.7-12,26.7-26.7,0-14.7-12-26.7-26.7-26.7Z" />
            </g>
            <g id="Y">
                <path class="st17"
                    d="M566.8,254.2c-13.9,0-25.2-11.3-25.2-25.2s11.3-25.2,25.2-25.2c13.9,0,25.2,11.3,25.2,25.2,0,13.9-11.3,25.2-25.2,25.2Z" />
                <path class="st1"
                    d="M566.8,205.3c13.1,0,23.7,10.6,23.7,23.7,0,13.1-10.6,23.7-23.7,23.7-13.1,0-23.7-10.6-23.7-23.7h0c0-13.1,10.6-23.7,23.7-23.7M566.8,202.3c-14.7,0-26.7,12-26.7,26.7,0,14.7,12,26.7,26.7,26.7,14.7,0,26.7-12,26.7-26.7h0c0-14.7-12-26.7-26.7-26.7h0Z" />
            </g>
            <g id="B">
                <path class="st17"
                    d="M617.3,304.7c-13.9,0-25.2-11.3-25.2-25.2s11.3-25.2,25.2-25.2c13.9,0,25.2,11.3,25.2,25.2,0,13.9-11.3,25.2-25.2,25.2Z" />
                <path class="st1"
                    d="M617.3,255.8c13.1,0,23.7,10.6,23.7,23.7,0,13.1-10.6,23.7-23.7,23.7-13.1,0-23.7-10.6-23.7-23.7h0c0-13.1,10.6-23.7,23.7-23.7h0M617.3,252.8c-14.7,0-26.7,12-26.7,26.7,0,14.7,12,26.7,26.7,26.7s26.7-12,26.7-26.7h0c0-14.7-12-26.7-26.7-26.7Z" />
            </g>
            <g id="X">
                <path class="st17"
                    d="M516.2,304.7c-13.9,0-25.2-11.3-25.2-25.2,0-13.9,11.3-25.2,25.2-25.2,13.9,0,25.2,11.3,25.2,25.2,0,13.9-11.3,25.2-25.2,25.2Z" />
                <path class="st1"
                    d="M516.2,255.8c13.1,0,23.7,10.6,23.7,23.7,0,13.1-10.6,23.7-23.7,23.7-13.1,0-23.7-10.6-23.7-23.7h0c0-13.1,10.6-23.7,23.7-23.7h0M516.2,252.8c-14.7,0-26.7,12-26.7,26.7,0,14.7,12,26.7,26.7,26.7,14.7,0,26.7-12,26.7-26.7,0-14.7-12-26.7-26.7-26.7Z" />
            </g>
        </g>
        <g>
            <g>
                <path class="st13"
                    d="M375.6,156.5s-88.9-1.1-100.5-3l-16.4,30.5c20.2,23.3,41.6,53.3,56.4,53.3h121c14.9,0,36.2-30,56.5-53.3l-16.4-30.5c-11.6,1.9-100.6,3-100.6,3Z" />
                <path
                    d="M476.2,153.5l-3.6-6.8c-1.8.5-3.6.7-5.4.8h-184.3c-1.4,0-2.9-.2-4.3-.5l-3.5,6.5c11.6,1.9,100.5,3,100.5,3,0,0,88.9-1.1,100.6-3Z" />
            </g>
            <g id="RB">
                <path class="st13"
                    d="M642.5,192c-9-7.9-5.6-16.2-11.5-23.9.2.3.5.6.7,1,0,0-96.5-42.1-120.8-34.5-15.6,4.9-27.2,15.3-32.8,18.2l15.8,29.5c11.2-12.7,22-23,31.1-24.8,20-3.9,83.9,16.3,117.5,34.3h0Z" />
                <path class="st11"
                    d="M511,134.6c24.3-7.6,120.8,34.5,120.8,34.5-.2-.3-.5-.6-.7-1h0c0-.2-.2-.3-.3-.5v-.2c-.1,0-.4-.3-.4-.3,0,0-.1-.1-.2-.2,0-.1-.2-.2-.3-.3l-.2-.2c-.1,0-.2-.2-.3-.3,0,0-.1-.1-.2-.2-.1,0-.2-.2-.3-.3l-.2-.2c0-.1-.2-.2-.3-.3l-.2-.2c-.1-.1-.2-.2-.3-.3l-.3-.2-.3-.3c0,0-.2-.1-.3-.2-.1-.1-.2-.2-.3-.3,0,0-.2-.1-.3-.2l-.4-.3-.3-.2c-.1,0-.3-.2-.4-.3l-.3-.2c-.2,0-.3-.2-.5-.3-.1,0-.2-.1-.3-.2-.2-.1-.3-.2-.5-.3l-.2-.2c-.3-.1-.6-.3-.8-.5-18.3-9.9-72-37-114.2-31.4-7.6,1-21.6,12.3-33.8,16.3l3.6,6.7c5.6-2.8,17.2-13.4,32.8-18.2Z" />
            </g>
            <g id="LB">
                <path class="st11"
                    d="M241.6,129.9c-42.2-5.6-95.9,21.5-114.2,31.4-.3.2-.6.3-.8.5l-.2.2c-.2,0-.4.2-.5.3,0,0-.2.1-.3.2l-.4.3-.3.2c-.1.1-.3.2-.4.3l-.3.2-.4.3c0,0-.2.1-.2.2-.1,0-.3.2-.4.3,0,0-.2.1-.2.2-.1,0-.2.2-.4.3l-.2.2c-.1.1-.2.2-.3.3l-.2.2c-.1,0-.2.2-.3.3,0,0-.1.1-.2.1-.1.1-.2.2-.3.3h-.2c0,.3-.2.4-.3.5v.2c-.2.1-.3.2-.4.4h-.1c-.1.2-.2.4-.3.5h0c-.1.2-.2.4-.3.5h0c-.1.2-.2.3-.3.5h0c-.1.2-.2.4-.3.5,0,0,97.7-42,122-34.4,15.5,4.9,27.2,15.3,32.8,18.2l3.4-6.3c-12.5-3.6-27.1-15.5-34.9-16.6Z" />
                <g>
                    <path class="st13" d="M273.6,153.1l.5.2-.5-.2Z" />
                    <path class="st13"
                        d="M273.1,152.9c-5.6-2.9-17.3-13.4-32.8-18.2-24.2-7.6-121.3,34.1-122,34.4-5,7.4-2.2,15.3-10.8,23h0c33.2-17.9,99.2-38.1,118.8-34.3,9.1,1.8,19.9,12.1,31.1,24.8l15.9-29.6h0Z" />
                    <path d="M273.1,152.9c.2,0,.3.2.5.2-.2-.1-.3-.2-.5-.2Z" />
                </g>
                <path
                    d="M258,183.2c.2.3.5.6.7.8l16.4-30.5,3.5-6.5c-.4,0-.7-.1-1-.2s-.7-.2-1-.3l-3.4,6.3-15.9,29.6c.2.3.5.5.7.8h0" />
            </g>
            <path
                d="M478.1,152.8l-3.6-6.7c-.3,0-.7.2-1,.3l-1,.3,3.6,6.8,16.4,30.5c.2-.3.5-.5.7-.8s.5-.5.7-.8l-15.9-29.6Z" />
            <path class="st13" d="M357,169.3h0Z" />
        </g>
        <g>
            <g>
                <path class="st13"
                    d="M549.1,5.5c-.4-.3-.8-.6-1.2-.9l-2.3,110,53.3,7.2c-12.1-116.8-43-111-49.7-116.3Z" />
                <path class="st0"
                    d="M522,.1c-10.8.4-12,11.4-12.1,15.2v1.2c1.8,31,1.8,62.1,0,93.1,9.9,2.3,38.5,5.3,38.5,5.3,0,0,0-20.9.7-50.6.8-37.5-1.2-59.8-1.2-59.8-6.4-4.5-13.6-4.9-25.9-4.4Z" />
            </g>
            <g>
                <path class="st13"
                    d="M201,5.5c.4-.3.8-.6,1.2-.9l2.3,110-53.2,7.2C163.4,5,194.2,10.8,201,5.5Z" />
                <path class="st0"
                    d="M228,.1c10.8.4,12.1,11.4,12.2,15.2v1.2c-1.8,31-1.8,62.1,0,93.1-9.9,2.3-38.5,5.3-38.5,5.3,0,0,0-20.9-.7-50.6-.8-37.5,1.2-59.8,1.2-59.8C208.6,0,215.8-.3,228,.1Z" />
            </g>
        </g>
    </g>
</svg>