<?xml version="1.0" encoding="UTF-8"?>
<svg id="layer" xmlns="http://www.w3.org/2000/svg" version="1.1" width="750" height="630"
    viewBox="0 0 750 630">
    <defs>
        <style>
            .st0 {
            fill: #ff0002;
            }
        </style>
    </defs>
    <path class="st0"
        d="M664.4,214c-6.7-16.7-20.5-20.9-21.8-22-11.7-10.3-2.5-21.2-20-30.7-18.3-9.9-72-37-114.2-31.4-9.2,1.2-27.8,17.6-41.2,17.6h-184.3c-13.4,0-32-16.4-41.2-17.6-42.2-5.6-95.9,21.5-114.2,31.4-17.5,9.5-8.2,20.4-19.9,30.7-1.3,1.1-15.1,5.3-21.8,22C22.9,370-1.7,469.1,0,529.1c2.9,94.4,76.6,101.3,76.6,101.3,37-8.6,111.6-129.1,168.5-129.1h259.6c57,0,131.5,120.5,168.5,129.1,0,0,73.7-6.9,76.6-101.3,1.9-60-22.8-159.1-85.5-315.1Z" />
    <path class="st0"
        d="M548.4,115l50.4,6.8c-12.1-116.8-43-111.1-49.7-116.4-.4-.3-.8-.6-1.2-.9-6.4-4.5-13.6-4.9-25.9-4.4-10.8.4-12,11.4-12.1,15.2v1.2c1.8,31,1.8,62.1,0,93.1,9.8,2.3,37.7,5.2,38.5,5.4Z" />
    <path class="st0"
        d="M201.7,115s28.6-3,38.5-5.3c-1.8-31-1.8-62.1,0-93.1v-1.3c-.1-3.8-1.4-14.8-12.2-15.2-12.2-.5-19.4,0-25.8,4.4-.4.3-.8.6-1.2.9-6.8,5.3-37.7-.5-49.7,116.3l50.4-6.8h0Z" />
</svg>