<?xml version="1.0" encoding="UTF-8"?>
<svg id="layer" xmlns="http://www.w3.org/2000/svg" version="1.1" width="68" height="34"
    viewBox="0 0 68 34">
    <defs>
        <style>
            .st0 {
            fill: #f5f5f5;
            stroke: #fff;
            stroke-miterlimit: 10;
            }

            .st1 {
            fill: #929493;
            }
        </style>
    </defs>
    <g id="Menu_Pressed">
        <path class="st0"
            d="M66.9,16.6c0,8.9-7.2,16.1-16.1,16.1s-16.1-7.2-16.1-16.1S41.9.5,50.8.5c8.9,0,16.1,7.2,16.1,16.1Z" />
        <g>
            <rect class="st1" x="43.6" y="12" width="14.4" height="1.6" />
            <rect class="st1" x="43.6" y="15.9" width="14.4" height="1.5" />
            <rect class="st1" x="43.6" y="19.7" width="14.4" height="1.5" />
        </g>
    </g>
    <g id="Switcher_Pressed">
        <path class="st0"
            d="M32.6,16.6c0,8.9-7.2,16.1-16.1,16.1-8.9,0-16.1-7.2-16.1-16.1C.4,7.7,7.6.5,16.5.5c0,0,0,0,0,0,8.9,0,16.1,7.2,16.1,16.1,0,0,0,0,0,0Z" />
        <g>
            <polygon class="st1"
                points="14 16.5 11 16.5 11 12.7 16.5 12.7 16.5 14 18.3 14 18.3 11 9.4 11 9.4 18.4 14 18.4 14 16.5" />
            <path class="st1" d="M14.8,14.7v7.6h9v-7.6h-9ZM21.9,20.4h-5.5v-4h5.5v4Z" />
        </g>
    </g>
</svg>