<?xml version="1.0" encoding="UTF-8"?>
<svg id="layer" xmlns="http://www.w3.org/2000/svg" version="1.1" width="89" height="122"
    viewBox="0 0 89 122">
    <defs>
        <style>
            .st0 {
            fill: #e5e5e5;
            }

            .st1 {
            fill: #ebebeb;
            }
        </style>
    </defs>
    <g id="LT_Pressed">
        <path class="st0" d="M74.8,56.1v-.7c0,.2,0,.4,0,.7Z" />
        <path class="st0" d="M49.7,5.5c.4-.3.8-.6,1.2-.9l2.3,110L0,121.8C12.1,5,43,10.8,49.7,5.5Z" />
        <path class="st1"
            d="M76.7.1c10.8.4,12.1,11.4,12.2,15.2v1.2c-1.8,31-1.8,62.1,0,93.1-9.9,2.3-38.5,5.4-38.5,5.4,0,0,0-20.9-.7-50.6-.8-37.5,1.2-59.8,1.2-59.8C57.3,0,64.5-.3,76.7.1Z" />
    </g>
</svg>