<?xml version="1.0" encoding="UTF-8"?>
<svg id="layer" xmlns="http://www.w3.org/2000/svg" version="1.1" width="979" height="837"
    viewBox="0 0 979 837">
    <defs>
        <style>
            .st0 {
            fill: #ed1c24;
            }
        </style>
    </defs>
    <g id="Layer_1_copy">
        <g>
            <path class="st0"
                d="M961,363c.6-12.5-.2-25-2.2-37.4-4.6-37.9-22.2-80-67.8-115.9,0-.2.3-.4.4-.6s0-.1,0-.2.3-.4.4-.6.2-.3.3-.5.2-.3.3-.5c.2-.4.5-.7.8-1.2,3-5.8-9.3-19.4-30.6-33.1-7.6-11.3-18.5-23.7-33-31.7-26.1-14.3-52.9-10.7-71.9-2.9-10.4-.3-16.7.7-17.6,1-.2,0-.4,0-.5.2,0,0,0,0,0,.1,0,.1-.3.1-.4.2,0,0,0,0,0,.1-.2.1-.3.2-.5.3h0c-.1.2-.2.3-.4.4h0c0,.2-.3.3-.4.5h0c0,.1-.3.2-.4.4h0c0,.1-.3.4-.3.4h0l-.3.3c-63.5-20.9-152.1-42.3-247.2-42.3s-191.8,23.4-255.8,45h0c-18-11.3-52-21.7-84.8-3.7s-47,58.5-47,58.5h0c-1.8,1-3.6,2.1-5.5,3.2-52.1,37.2-71.7,82.3-76.6,122.5-2,12.4-2.7,24.9-2.2,37.4C9.5,386.3,0,647.5,0,647.5c0,0,4.5,73.3,9,100.8s20.5,52,20.5,52c0,0,26.5,51.8,71,32.3s56-111.5,56-111.5c0,0,12.5-84,18-115.5,4.8-27.2,11.7-41.4,13.6-44.7,9.6,12.3,16.8,26.4,21.2,41.4.6,4.2,1.5,8.3,2.6,12.4h0c5.8,20.2,20,42.8,51.6,60,74.7,40.7,140.6-8.6,140.6-8.6,2-1.4,3.9-3,5.7-4.6,1.5-1,2.3-1.6,2.3-1.6,0,0,53.7-36.5,44.5-118.2-4.1-36.1-35.7-64.3-51.7-78.8-12-10.8-19-22.3-23-34.9.1,0,41-11,107.4-11s107.4,11,107.4,11c-4,12.6-11,24.1-23,34.9-16,14.5-47.7,42.7-51.7,78.8-9.2,81.6,44.5,118.2,44.5,118.2,0,0,.8.6,2.3,1.6,1.8,1.6,3.7,3.2,5.7,4.6,0,0,65.9,49.3,140.6,8.6,31.7-17.3,45.8-39.8,51.6-60h0c1.2-4.1,2-8.2,2.6-12.4,4.3-15.1,11.5-29.1,21.2-41.4,1.8,3.3,8.8,17.5,13.6,44.7,5.4,31.4,17.9,115.4,17.9,115.4,0,0,11.5,92,56,111.5s71-32.3,71-32.3c0,0,16-24.5,20.5-52s9-100.8,9-100.8c0,0-9.5-261.1-17.5-284.4Z" />
            <path class="st0"
                d="M167.2,94.5c36.2,0,65.6-2.4,65.6-5.3v-37.2c0-28.7-23.3-52-52-52h-27.2c-28.7,0-52,23.3-52,52v37.3c0,2.8,29.4,5.2,65.6,5.2Z" />
            <path class="st0"
                d="M811.3,94.5c36.2,0,65.6-2.4,65.6-5.3v-37.2c0-28.7-23.3-52-52-52h-27.2c-28.7,0-52,23.3-52,52v37.3c0,2.8,29.3,5.2,65.6,5.2Z" />
        </g>
    </g>
</svg>