<?xml version="1.0" encoding="UTF-8"?>
<svg id="layer" xmlns="http://www.w3.org/2000/svg" version="1.1" width="225" height="66"
    viewBox="0 0 225 66">
    <defs>
        <style>
            .st0 {
            fill: #171717;
            }
        </style>
    </defs>
    <g id="Right">
        <path class="st0"
            d="M219.6,1h-35.1c-.9,0-1.8-.4-2.4-1l-12.6,12.6-9.5,9.5,9.5,9.5,12.5,12.7c.6-.6,1.5-1,2.4-1h35.1c3.1,0,5.6-2.5,5.6-5.6,0,0,0,0,0,0V6.7c.1-3-2.2-5.6-5.2-5.7,0,0-.2,0-.3,0Z" />
    </g>
    <g id="Up">
        <path class="st0"
            d="M43.3,40.8V5.6C43.3,2.5,40.8,0,37.7,0c0,0,0,0,0,0H6.7C3.6,0,1.1,2.4,1,5.5c0,0,0,0,0,0v35.1c0,.9-.4,1.8-1,2.4l12.6,12.6,9.5,9.5,9.5-9.5,12.6-12.6c-.6-.6-.9-1.4-.9-2.3Z" />
    </g>
    <g id="Down">
        <path class="st0"
            d="M78,9.5L68.4,0l-9.5,9.5-12.6,12.6c.6.6,1,1.5,1,2.4v35.1c0,3.1,2.5,5.6,5.6,5.6,0,0,0,0,0,0h31c3.1,0,5.6-2.5,5.6-5.6,0,0,0,0,0,0V24.6c0-.9.4-1.8,1-2.4l-12.5-12.7Z" />
    </g>
    <g id="Left">
        <path class="st0"
            d="M148.3,12.6l-12.5-12.6c-.6.6-1.5,1-2.4,1h-35.2c-3.1,0-5.6,2.5-5.6,5.6,0,0,0,0,0,0v31c0,3.1,2.5,5.6,5.6,5.6,0,0,0,0,0,0h35.1c.9,0,1.8.4,2.4,1l12.6-12.6,9.5-9.5-9.5-9.5Z" />
    </g>
</svg>