<?xml version="1.0" encoding="UTF-8"?>
<svg id="layer" xmlns="http://www.w3.org/2000/svg" version="1.1" width="912" height="534"
    viewBox="0 0 912 534">
    <defs>
        <style>
            .st0 {
            fill: #fff;
            }

            .st1 {
            fill: #c1272d;
            }
        </style>
    </defs>
    <rect class="st1" width="912" height="533.6" />
    <g>
        <path class="st0"
            d="M156,263.7v-21.9h31.2v6.2h6.2v6.2h6.2v18.8h-6.2v6.2h-6.2v6.2h-31.2v-21.7ZM181,251.2v-3.2h-12.6v31.2h12.6v-6.2h6.2v-18.8h-6.2v-3Z" />
        <path class="st0"
            d="M218.5,257.4v-3.1h18.8v25h12.6v6.2h-37.6v-6.2h12.6v-18.8h-6.2v-3.1h-.2,0ZM224.8,244.9v-3.1h12.6v6.2h-12.6v-3.1h0Z" />
        <path class="st0"
            d="M262.3,257.4v-3.1h31.2v6.2h-25v6.2h25v6.2h6.2v6.2h-6.2v6.2h-37.6v-6.2h31.2v-6.1h-25v-6.2h-6.1v-6.2h6.2v-3.2h.1,0Z" />
        <path class="st0"
            d="M312.3,257.4v-3.1h37.6v6.2h-31.4v18.8h31.2v6.2h-37.6v-6.2h-6.1v-18.8h6.2v-3.1h.1,0Z" />
        <path class="st0"
            d="M362.3,257.4v-3.1h31.2v6.2h6.2v18.8h-6.2v6.2h-31.2v-6.2h-6.3v-18.8h6.2v-3.1h0ZM387.3,269.9v-9.4h-18.8v18.8h18.8v-9.4Z" />
        <path class="st0" d="M406,269.9v-15.6h37.6v6.2h6.2v25h-12.6v-25h-18.8v25h-12.6v-15.6h.2,0Z" />
        <path class="st0" d="M456,269.9v-15.6h37.6v6.2h6.2v25h-12.6v-25h-18.8v25h-12.6v-15.6h.2,0Z" />
        <path class="st0"
            d="M512.3,257.4v-3.1h31.2v6.2h6.2v12.6h-31.2v6.2h25v6.2h-31.2v-6.2h-6.3v-18.8h6.2v-3.1h0ZM537.3,263.7v-3.1h-18.8v6.2h18.8v-3.1Z" />
        <path class="st0"
            d="M562.3,257.4v-3.1h37.6v6.2h-31.4v18.8h31.2v6.2h-37.6v-6.2h-6.1v-18.8h6.2v-3.1h0Z" />
        <path class="st0"
            d="M624.8,248v-6.3h12.6v12.6h12.6v6.2h-12.6v25h-12.6v-25h-12.6v-6.2h12.6v-6.3Z" />
        <path class="st0"
            d="M662.3,257.4v-3.1h31.2v6.2h6.2v12.6h-31.2v6.2h25v6.2h-31.2v-6.2h-6.3v-18.8h6.2v-3.1h0ZM687.3,263.7v-3.1h-18.8v6.2h18.8v-3.1Z" />
        <path class="st0"
            d="M737.3,248v-6.3h12.6v43.8h-37.6v-6.2h-6.3v-18.8h6.2v-6.2h25v-6.3h0ZM737.3,269.9v-9.4h-18.8v18.8h18.8v-9.4Z" />
    </g>
</svg>