<?xml version="1.0" encoding="UTF-8"?>
<svg id="layer" xmlns="http://www.w3.org/2000/svg" version="1.1" width="806" height="599"
    viewBox="0 0 806 599">
    <!-- Generator: Adobe Illustrator 29.0.0, SVG Export Plug-In . SVG Version: 2.1.0 Build 186)  -->
    <defs>
        <style>
            .st0 {
            fill: #ff69f8;
            }

            .st1 {
            fill: #10111a;
            }

            .st2 {
            fill: #121212;
            }

            .st3 {
            fill: #080808;
            }

            .st4 {
            fill: #fff;
            }

            .st5 {
            fill: #f66;
            }

            .st6 {
            fill: #1f1f1f;
            }

            .st7 {
            fill: #202020;
            }

            .st8 {
            opacity: 0;
            }

            .st9 {
            fill: #40e2a0;
            }

            .st10 {
            fill: #13161f;
            }

            .st11 {
            fill: #0f0f0f;
            }

            .st12 {
            fill: #1a1a1a;
            }

            .st13 {
            isolation: isolate;
            opacity: .2;
            }

            .st14 {
            fill: #0f1015;
            }

            .st15 {
            fill: #7cb2e8;
            }

            .st16 {
            fill: #0a0a0a;
            }

            .st17 {
            fill: #101010;
            }
        </style>
    </defs>
    <g>
        <path class="st17"
            d="M801.3,418.6c-2.9-15.5-17.7-102.5-32-144.6-9.4-27.7-13.1-53-17-64.9-12-35.7-33-65.7-33-65.7,0,0-9.5-13.1-10.1-16.3s-4.7-8.6-4.7-8.6c0,0-17.4-5.7-62.3-5.7s-53.7,5-53.7,5c-1.7,1.9-3.7,3.5-5.9,4.8-3.5,1.8-11.7,1.7-11.7,1.7h-33.4c-.3,0-.7,0-.9.3-.3.6-.5,1.3-.6,2h-266.1c-.1-.7-.3-1.4-.6-2-.2-.2-.6-.3-.9-.3h-33.4s-8.2.2-11.7-1.7c-2.2-1.2-4.2-2.8-5.9-4.8,0,0-8.8-5-53.7-5s-62.3,5.7-62.3,5.7c0,0-4.1,5.3-4.7,8.6-.6,3.3-10.1,16.3-10.1,16.3,0,0-21,30-33,65.7-4,11.9-7.7,37.2-17,64.9-14.3,42.1-29.1,129.1-32,144.6C.3,441.8,0,508.8,0,508.8c0,0,4.5,53.4,36.2,74.9s56.7,14,56.7,14c0,0,33.1-8.2,57.8-41.9s56.6-129.2,56.6-129.2c1.6-2.1,3.5-3.8,5.7-5.3,1.9-1.3,4-2.2,6.3-2.6h183.7c0,.1,183.7,0,183.7,0,2.3.4,4.4,1.3,6.3,2.6,2.2,1.5,4.1,3.2,5.7,5.3,0,0,31.9,95.4,56.6,129.2s57.8,41.9,57.8,41.9c0,0,25,7.5,56.7-14s36.2-74.9,36.2-74.9c0,0-.3-67-4.7-90.2h0Z" />
        <g class="st8">
            <path class="st4"
                d="M36.6,276c9.4-27.7,13.1-53,17-64.9,12-35.7,33-65.7,33-65.7,0,0,9.5-13.1,10.1-16.3s4.7-8.6,4.7-8.6c0,0,17.4-5.7,62.3-5.7s53.7,5,53.7,5c1.7,1.9,3.7,3.5,5.9,4.8,3.5,1.8,11.7,1.7,11.7,1.7h33.4c.3,0,.7,0,.9.3.3.6.5,1.3.6,2h266.2c0-.7.3-1.4.6-2,.2-.2.6-.3.9-.3h33.4s8.2.2,11.7-1.7c2.2-1.2,4.2-2.8,5.9-4.8,0,0,8.8-5,53.7-5s62.3,5.7,62.3,5.7c0,0,4.1,5.3,4.7,8.6s10.1,16.3,10.1,16.3c0,0,21,30,33,65.7,4,11.9,7.7,37.2,17,64.9,14.3,42.1,29.1,129.1,32,144.6,3.9,20.9,4.6,77.3,4.7,88.3h0c0-.1-.3-67-4.7-90.2-2.9-15.5-17.7-102.5-32-144.6-9.4-27.7-13.1-53-17-64.9-12-35.7-33-65.7-33-65.7,0,0-9.5-13.1-10.1-16.3s-4.7-8.6-4.7-8.6c0,0-17.4-5.7-62.3-5.7s-53.7,5-53.7,5c-1.7,1.9-3.7,3.5-5.9,4.8-3.5,1.8-11.7,1.7-11.7,1.7h-33.4c-.3,0-.7,0-.9.3-.3.6-.5,1.3-.6,2h-266.2c-.1-.7-.3-1.4-.6-2-.2-.2-.6-.3-.9-.3h-33.4s-8.2.2-11.7-1.7c-2.2-1.2-4.2-2.8-5.9-4.8,0,0-8.8-5-53.7-5s-62.3,5.7-62.3,5.7c0,0-4.1,5.3-4.7,8.6-.6,3.3-10.1,16.3-10.1,16.3,0,0-21,30-33,65.7-4,11.9-7.7,37.2-17,64.9-14.3,42.1-29.1,129.1-32,144.6C.3,441.8,0,508.8,0,508.8h0c.1-10.8.7-67.3,4.7-88.2,2.9-15.4,17.6-102.5,31.9-144.6h0Z" />
        </g>
        <path class="st10"
            d="M351.2,360c0-42.2-34.3-76.5-76.5-76.5s-76.5,34.3-76.5,76.5,0,1.3.1,2c0,.7-.1,1.3-.1,2,0,42.2,34.3,76.5,76.5,76.5s76.5-34.3,76.5-76.5,0-1.3-.1-2c0-.7.1-1.4.1-2Z" />
        <circle class="st14" cx="274.7" cy="356" r="73" />
        <circle cx="274.7" cy="356" r="51.5" />
        <path class="st10"
            d="M607.8,360c0-42.2-34.3-76.5-76.5-76.5s-76.5,34.3-76.5,76.5,0,1.3.1,2c0,.7-.1,1.3-.1,2,0,42.2,34.3,76.5,76.5,76.5s76.5-34.3,76.5-76.5v-4Z" />
        <circle class="st14" cx="531.3" cy="356" r="73" />
        <circle cx="531.3" cy="356" r="51.5" />
        <path class="st7"
            d="M534.8,128c-.5-3.2-3.2-5.6-6.5-5.6h-250.6c-3.3,0-6.1,2.4-6.5,5.6,0,.7-.1,1.4-.1,2.1v127.4c0,8.9,7.2,16.1,16.1,16.1h231.6c8.9,0,16.1-7.2,16.1-16.1h0v-129.5h0Z" />
        <circle class="st3" cx="652.3" cy="244.8" r="94.3" />
        <g>
            <circle class="st3" cx="153.7" cy="244.8" r="94.3" />
            <path class="st6"
                d="M230.4,254.1l9.5-8.9c.5-.4.5-1.2,0-1.6h0l-9.5-8.9c-.4-.4-1.2-.4-1.6,0-.2.2-.3.5-.3.8v17.8c0,.6.5,1.2,1.1,1.2s.6,0,.8-.3h0Z" />
            <path class="st6"
                d="M145,169.8h17.8c.6,0,1.1-.5,1.1-1.1s-.1-.6-.3-.8l-8.9-9.5c-.4-.5-1.2-.5-1.6,0h0l-8.9,9.5c-.4.5-.3,1.2.2,1.6.2.2.5.3.7.3h-.1Z" />
            <path class="st6"
                d="M77.5,234.6l-9.5,8.9c-.5.4-.5,1.2,0,1.6h0l9.5,8.9c.4.4,1.2.4,1.6,0,.2-.2.3-.5.3-.8v-17.8c0-.6-.4-1.2-1.1-1.2s-.6,0-.8.3h0Z" />
            <path class="st6"
                d="M162.8,318.8h-17.8c-.6,0-1.1.5-1.1,1.1s.1.6.3.8l8.9,9.5c.4.5,1.2.5,1.6,0h0l8.9-9.5c.4-.5.3-1.2-.2-1.6-.2-.2-.5-.3-.7-.3h.1Z" />
        </g>
    </g>
    <g>
        <g>
            <path
                d="M240.5,143.5c6.9,0,12.5,5.6,12.5,12.5v18.3c0,6.9-5.6,12.5-12.5,12.5s-12.5-5.6-12.5-12.5v-18.3c0-6.9,5.6-12.5,12.5-12.5M240.5,141.8c-7.8,0-14.2,6.4-14.2,14.2v18.3c0,7.8,6.4,14.2,14.2,14.2s14.2-6.4,14.2-14.2v-18.3c0-7.8-6.3-14.2-14.2-14.2h0Z" />
            <path class="st1"
                d="M240.5,143.5c-6.9,0-12.5,5.6-12.5,12.5v18.3c0,6.9,5.6,12.5,12.5,12.5s12.5-5.6,12.5-12.5v-18.3c0-6.9-5.6-12.5-12.5-12.5Z" />
        </g>
        <g>
            <path
                d="M565.5,143.5c6.9,0,12.5,5.6,12.5,12.5v18.3c0,6.9-5.6,12.5-12.5,12.5h0c-6.9,0-12.5-5.6-12.5-12.5h0v-18.3c0-6.9,5.6-12.5,12.5-12.5h0M565.5,141.8c-7.8,0-14.2,6.4-14.2,14.2v18.3c0,7.8,6.4,14.2,14.2,14.2s14.2-6.4,14.2-14.2h0v-18.3c0-7.8-6.3-14.2-14.2-14.2h0Z" />
            <path class="st1"
                d="M565.5,143.5c-6.9,0-12.5,5.6-12.5,12.5v18.3c0,6.9,5.6,12.5,12.5,12.5s12.5-5.6,12.5-12.5v-18.3c0-6.9-5.6-12.5-12.5-12.5Z" />
        </g>
        <g>
            <g>
                <path class="st12"
                    d="M141.2,247.2c1.4-2,1.2-2.9,1.2-2.9,0,0,.2-.9-1.2-2.9s-15-13.6-15.7-14-28.5-2.2-31.4,1.3-2.6,15.6-2.6,15.6c0,0-.3,12.1,2.6,15.6s30.7,1.7,31.4,1.3,14.3-12,15.7-14h0Z" />
                <path class="st13"
                    d="M141.2,247.2c1.4-2,1.2-2.9,1.2-2.9,0,0,.2-.9-1.2-2.9-.9-1.3-6.9-6.6-11.2-10.3-2.2,4.1-3.4,8.6-3.4,13.2s1.1,9.2,3.4,13.2c4.3-3.7,10.3-9,11.2-10.3Z" />
            </g>
            <g>
                <path class="st12"
                    d="M151,231.6c2,1.4,2.9,1.2,2.9,1.2,0,0,.9.2,2.9-1.2s13.6-15,14-15.7,2.2-28.5-1.3-31.4-15.6-2.6-15.6-2.6c0,0-12.1-.3-15.6,2.6s-1.7,30.7-1.3,31.4,12,14.3,14,15.7h0Z" />
                <path class="st13"
                    d="M151,231.6c2,1.4,2.9,1.2,2.9,1.2,0,0,.9.2,2.9-1.2,1.3-.9,6.6-6.9,10.3-11.2-4.1-2.2-8.6-3.4-13.2-3.4s-9.2,1.1-13.2,3.4c3.8,4.3,9,10.3,10.3,11.2Z" />
            </g>
            <g>
                <path class="st12"
                    d="M213.7,228.8c-2.9-3.5-30.7-1.7-31.4-1.3s-14.3,12-15.7,14-1.2,2.9-1.2,2.9c0,0-.2.9,1.2,2.9s15,13.6,15.7,14,28.5,2.2,31.4-1.3,2.6-15.6,2.6-15.6c0,0,.3-12.1-2.6-15.6h0Z" />
                <path class="st13"
                    d="M177.9,231.2c-4.3,3.7-10.3,9-11.2,10.3-1.4,2-1.2,2.9-1.2,2.9,0,0-.2.9,1.2,2.9.9,1.3,6.9,6.6,11.2,10.3,4.5-8.2,4.5-18.2,0-26.4h0Z" />
            </g>
            <g>
                <path class="st12"
                    d="M156.8,257.1c-2-1.4-2.9-1.2-2.9-1.2,0,0-.9-.2-2.9,1.2s-13.6,15-14,15.7-2.2,28.5,1.3,31.4,15.6,2.6,15.6,2.6c0,0,12.1.3,15.6-2.6s1.7-30.7,1.3-31.4-12-14.3-14-15.7h0Z" />
                <path class="st13"
                    d="M156.8,257.1c-2-1.4-2.9-1.2-2.9-1.2,0,0-.9-.2-2.9,1.2-1.3.9-6.6,6.9-10.3,11.2,4.1,2.2,8.6,3.4,13.2,3.4s9.2-1.1,13.2-3.4c-3.7-4.3-9-10.3-10.3-11.2Z" />
            </g>
        </g>
    </g>
    <g>
        <g>
            <g>
                <path class="st12"
                    d="M709.9,271c-14.5,0-26.3-11.8-26.3-26.3s11.8-26.3,26.3-26.3,26.3,11.8,26.3,26.3h0c0,14.5-11.8,26.3-26.3,26.3Z" />
                <path class="st11"
                    d="M709.9,219.5c13.9,0,25.2,11.4,25.2,25.3s-11.4,25.2-25.3,25.2-25.2-11.4-25.2-25.3,11.4-25.2,25.3-25.2M709.9,217.5c-15.1,0-27.3,12.2-27.3,27.3s12.2,27.3,27.3,27.3,27.3-12.2,27.3-27.3h0c0-15.1-12.2-27.3-27.3-27.3Z" />
            </g>
            <path class="st5"
                d="M709.9,225.9c-10.4,0-18.9,8.5-18.9,18.9s8.5,18.9,18.9,18.9,18.9-8.5,18.9-18.9-8.5-18.9-18.9-18.9ZM709.9,260.8c-8.8,0-16-7.2-16-16s7.2-16,16-16,16,7.2,16,16-7.2,16-16,16Z" />
        </g>
        <g>
            <g>
                <path class="st12"
                    d="M652.3,328.6c-14.5,0-26.3-11.8-26.3-26.3s11.8-26.3,26.3-26.3,26.3,11.8,26.3,26.3h0c0,14.5-11.8,26.3-26.3,26.3Z" />
                <path class="st11"
                    d="M652.3,277.1c14,0,25.3,11.3,25.3,25.3s-11.3,25.3-25.3,25.3-25.3-11.3-25.3-25.3h0c0-14,11.3-25.3,25.3-25.3M652.3,275.1c-15.1,0-27.3,12.2-27.3,27.3s12.2,27.3,27.3,27.3,27.3-12.2,27.3-27.3h0c0-15.1-12.2-27.3-27.3-27.3Z" />
            </g>
            <polygon class="st15"
                points="666.7 290 664.7 288 652.3 300.4 640 288 638 290 650.3 302.4 638 314.7 640 316.7 652.3 304.4 664.7 316.7 666.7 314.7 654.3 302.4 666.7 290" />
        </g>
        <g>
            <g>
                <path class="st12"
                    d="M594.8,271c-14.5,0-26.3-11.8-26.3-26.3s11.8-26.3,26.3-26.3,26.3,11.8,26.3,26.3h0c0,14.5-11.8,26.3-26.3,26.3Z" />
                <path class="st11"
                    d="M594.7,219.5c13.9,0,25.2,11.4,25.2,25.3s-11.4,25.2-25.3,25.2-25.2-11.4-25.2-25.3,11.4-25.2,25.3-25.2M594.7,217.5c-15.1,0-27.3,12.2-27.3,27.3s12.2,27.3,27.3,27.3,27.3-12.2,27.3-27.3h0c0-15.1-12.2-27.3-27.3-27.3Z" />
            </g>
            <path class="st0"
                d="M606.3,230.4h-25.8v28.6h28.6v-28.6h-2.8ZM606.3,256.3h-23v-23h23v23Z" />
        </g>
        <g>
            <g>
                <path class="st12"
                    d="M652.3,213.5c-14.5,0-26.3-11.8-26.3-26.3s11.8-26.3,26.3-26.3,26.3,11.8,26.3,26.3h0c0,14.5-11.8,26.3-26.3,26.3Z" />
                <path class="st11"
                    d="M652.3,162c14,0,25.3,11.3,25.3,25.3s-11.3,25.3-25.3,25.3-25.3-11.3-25.3-25.3h0c0-14,11.3-25.3,25.3-25.3M652.3,160c-15.1,0-27.3,12.2-27.3,27.3s12.2,27.3,27.3,27.3,27.3-12.2,27.3-27.3h0c0-15.1-12.2-27.3-27.3-27.3Z" />
            </g>
            <path class="st9"
                d="M668.3,195.2l-16-27.6-16,27.6-1.6,2.8h35.2l-1.6-2.8h0ZM652.3,195.2h-12.7l12.7-21.9,12.7,21.9h-12.7Z" />
        </g>
    </g>
    <g>
        <g>
            <path class="st16"
                d="M697.2,109.9c0-.8-.4-1.5-1.1-1.9-4.5-2.9-23.4-13.6-51.5-13.6s-41.1,5.9-45.1,8c-.7.4-1.2,1.2-1.2,2,0,0,9.8-2.9,47.5-2.9s51.4,8.4,51.4,8.4h0Z" />
            <path class="st2"
                d="M697.1,116.8h0v-6.9s-13.7-8.4-51.4-8.4-47.5,2.9-47.5,2.9v11h0c7.7-1.3,21.2-2.6,44.1-2.6s45.9,2.4,54.8,4h0Z" />
        </g>
        <g>
            <path class="st16"
                d="M108.8,109.9c0-.8.4-1.5,1.1-1.9,4.5-2.9,23.4-13.6,51.5-13.6s41.1,5.9,45.1,8c.7.4,1.2,1.2,1.2,2,0,0-9.8-2.9-47.5-2.9s-51.4,8.4-51.4,8.4Z" />
            <path class="st2"
                d="M108.9,116.8h0v-6.9s13.7-8.4,51.4-8.4,47.5,2.9,47.5,2.9v11h0c-7.7-1.3-21.2-2.6-44.1-2.6s-45.9,2.4-54.8,4Z" />
        </g>
    </g>
    <g>
        <g>
            <g>
                <path class="st2"
                    d="M697.2,90.8s-32.7-3.2-50.6-3.2-48.4,2.4-48.4,2.4c0,0,3.1-44.7,4.8-52s7.7-21.3,16.9-27.9,11.9-10.1,22.7-10.1,25.4,6.4,34.6,21.4c9.2,15,20,69.4,20,69.4h0Z" />
                <path class="st16"
                    d="M598.7,83.2s26.1-4.4,49-4.4,47.9,4.4,47.9,4.4c1,4.7,1.6,7.6,1.6,7.6,0,0-32.7-3.2-50.6-3.2s-48.4,2.4-48.4,2.4c0,0,.2-2.7.5-6.8Z" />
            </g>
            <g class="st8">
                <path class="st4"
                    d="M648.7,65.7l-3.2,2.6c-1.2,1.2-1.9,2.8-2,4.5h9.8v-2.6h-6.3c.6-.8,1.3-1.4,2.1-1.9,1-.6,1.9-1.3,2.7-2.1.8-.9,1.3-2.1,1.3-3.3s-.5-2.5-1.4-3.3c-1-.8-2.2-1.2-3.5-1.2-3.1,0-4.7,1.7-4.7,5h2.7c0-1.8.7-2.7,2.1-2.7s1.9.6,2,1.6v.5c.2,1.1-.4,2-1.6,2.9h0Z" />
                <path class="st4"
                    d="M631.1,67.2h3c1.5,0,2.3.6,2.4,1.9s.2,2.5.3,3.8h3.3v-.4c-.5-.2-.7-.7-.7-1.5v-1.5c.2-1.4-.6-2.8-1.8-3.5,1.4-.5,2.3-1.9,2.2-3.4,0-1.2-.4-2.3-1.3-3-.9-.7-2-1.1-3.2-1h-7.3v14.3h3v-5.7h0ZM631.1,61h3.7c1.4,0,2.1.6,2.1,1.9s-.8,1.9-2.3,1.9h-3.5v-3.8Z" />
            </g>
        </g>
        <g>
            <g>
                <path class="st2"
                    d="M108.8,90.8s32.7-3.2,50.6-3.2,48.3,2.4,48.3,2.4c0,0-3.1-44.7-4.8-52s-7.7-21.3-16.9-27.9S174.2,0,163.4,0s-25.4,6.4-34.6,21.4c-9.2,15-20,69.4-20,69.4h0Z" />
                <path class="st16"
                    d="M207.3,83.2s-26.1-4.4-49-4.4-47.9,4.4-47.9,4.4c-1,4.7-1.6,7.6-1.6,7.6,0,0,32.7-3.2,50.6-3.2s48.3,2.4,48.3,2.4c0,0,0-2.7-.4-6.8Z" />
            </g>
            <g class="st8">
                <path class="st4"
                    d="M173.3,65.7l-3.2,2.6c-1.2,1.2-1.9,2.8-2,4.5h9.8v-2.6h-6.2c.6-.8,1.3-1.4,2.1-1.9,1-.6,1.9-1.3,2.7-2.1.8-.9,1.3-2.1,1.3-3.3s-.5-2.5-1.4-3.3c-1-.8-2.2-1.2-3.5-1.2-3.1,0-4.7,1.7-4.7,5h2.7c0-1.8.7-2.7,2.1-2.7s1.9.6,2,1.6v.5c0,1.1-.5,2-1.7,2.9h0Z" />
                <polygon class="st4"
                    points="164.8 70.2 157.8 70.2 157.8 58.5 154.7 58.5 154.7 72.8 164.8 72.8 164.8 70.2" />
            </g>
        </g>
    </g>
</svg>