<?xml version="1.0" encoding="UTF-8"?>
<svg id="layer" xmlns="http://www.w3.org/2000/svg" version="1.1" width="179" height="104"
    viewBox="0 0 179 104">
    <defs>
        <style>
            .st0, .st1 {
            isolation: isolate;
            opacity: .2;
            }

            .st1 {
            fill: #fff;
            }

            .st2 {
            fill: #1a1a1a;
            }

            .st3 {
            fill: #e6e6e6;
            }
        </style>
    </defs>
    <g>
        <g>
            <path class="st2"
                d="M124.5,20.6c1.4-2,1.2-2.9,1.2-2.9,0,0,.2-.9-1.2-2.9S109.5,1.2,108.8.8s-28.5-2.2-31.4,1.3c-2.9,3.5-2.6,15.6-2.6,15.6,0,0-.3,12.1,2.6,15.6,2.9,3.5,30.7,1.7,31.4,1.3s14.3-12,15.7-14Z" />
            <path class="st0"
                d="M124.5,20.6c1.4-2,1.2-2.9,1.2-2.9,0,0,.2-.9-1.2-2.9-.9-1.3-6.9-6.6-11.2-10.3-2.2,4.1-3.4,8.6-3.4,13.2,0,4.6,1.1,9.2,3.4,13.2,4.3-3.7,10.3-9,11.2-10.3Z" />
        </g>
        <g>
            <path class="st2"
                d="M52.2,49.7c2,1.4,2.9,1.2,2.9,1.2,0,0,.9.2,2.9-1.2s13.6-15,14-15.7,2.2-28.5-1.3-31.4S55.1,0,55.1,0c0,0-12.1-.2-15.6,2.6-3.5,2.8-1.7,30.7-1.3,31.4s12,14.3,14,15.7Z" />
            <path class="st0"
                d="M52.2,49.7c2,1.4,2.9,1.2,2.9,1.2,0,0,.9.2,2.9-1.2,1.3-.9,6.6-6.9,10.3-11.2-4.1-2.2-8.6-3.4-13.2-3.4-4.6,0-9.2,1.1-13.2,3.4,3.7,4.3,9,10.3,10.3,11.2Z" />
        </g>
        <g>
            <path class="st2"
                d="M175.9,2.2c-2.9-3.5-30.7-1.7-31.4-1.3s-14.3,12-15.7,14-1.2,2.9-1.2,2.9c0,0-.2.9,1.2,2.9s15,13.6,15.7,14,28.5,2.2,31.4-1.3,2.6-15.6,2.6-15.6c0,0,.3-12.1-2.6-15.6Z" />
            <path class="st0"
                d="M140.1,4.6c-4.3,3.7-10.3,9-11.2,10.3-1.4,2-1.2,2.9-1.2,2.9,0,0-.2.9,1.2,2.9.9,1.3,6.9,6.6,11.2,10.3,2.2-4.1,3.4-8.6,3.4-13.2,0-4.6-1.2-9.1-3.4-13.2Z" />
        </g>
        <g>
            <path class="st2"
                d="M20.6,1.2C18.6-.2,17.7,0,17.7,0c0,0-.9-.2-2.9,1.2C12.8,2.6,1.2,16.2.8,16.9s-2.2,28.5,1.3,31.4c3.5,2.9,15.6,2.6,15.6,2.6,0,0,12.1.3,15.6-2.6,3.5-2.9,1.7-30.7,1.3-31.4S22.6,2.6,20.6,1.2Z" />
            <path class="st0"
                d="M20.6,1.2C18.6-.2,17.7,0,17.7,0c0,0-.9-.2-2.9,1.2-1.3.9-6.6,6.9-10.3,11.2,4.1,2.2,8.6,3.4,13.2,3.4,4.6,0,9.2-1.1,13.2-3.4-3.7-4.3-9-10.3-10.3-11.2Z" />
        </g>
    </g>
    <g>
        <g>
            <path class="st3"
                d="M124.5,73.6c1.4-2,1.2-2.9,1.2-2.9,0,0,.2-.9-1.2-2.9s-15-13.6-15.7-14-28.5-2.2-31.4,1.3-2.6,15.6-2.6,15.6c0,0-.3,12.1,2.6,15.6s30.7,1.7,31.4,1.3,14.3-12,15.7-14Z" />
            <path class="st1"
                d="M124.5,73.6c1.4-2,1.2-2.9,1.2-2.9,0,0,.2-.9-1.2-2.9-.9-1.3-6.9-6.6-11.2-10.3-2.2,4.1-3.4,8.6-3.4,13.2,0,4.6,1.1,9.2,3.4,13.2,4.3-3.7,10.3-9,11.2-10.3Z" />
        </g>
        <g>
            <path class="st3"
                d="M52.2,102.7c2,1.4,2.9,1.2,2.9,1.2,0,0,.9.2,2.9-1.2s13.6-15,14-15.7,2.2-28.5-1.3-31.4-15.6-2.6-15.6-2.6c0,0-12.1-.2-15.6,2.6s-1.7,30.7-1.3,31.4,12,14.3,14,15.7Z" />
            <path class="st1"
                d="M52.2,102.7c2,1.4,2.9,1.2,2.9,1.2,0,0,.9.2,2.9-1.2,1.3-.9,6.6-6.9,10.3-11.2-4.1-2.2-8.6-3.4-13.2-3.4-4.6,0-9.2,1.1-13.2,3.4,3.7,4.3,9,10.3,10.3,11.2Z" />
        </g>
        <g>
            <path class="st3"
                d="M175.9,55.1c-2.9-3.5-30.7-1.7-31.4-1.3s-14.3,12-15.7,14-1.2,2.9-1.2,2.9c0,0-.2.9,1.2,2.9s15,13.6,15.7,14,28.5,2.2,31.4-1.3,2.6-15.6,2.6-15.6c0,0,.3-12.1-2.6-15.6Z" />
            <path class="st1"
                d="M140.1,57.6c-4.3,3.7-10.3,9-11.2,10.3-1.4,2-1.2,2.9-1.2,2.9,0,0-.2.9,1.2,2.9.9,1.3,6.9,6.6,11.2,10.3,4.5-8.2,4.5-18.2,0-26.4Z" />
        </g>
        <g>
            <path class="st3"
                d="M20.6,54.2c-2-1.4-2.9-1.2-2.9-1.2,0,0-.9-.2-2.9,1.2S1.2,69.2.8,69.9s-2.2,28.5,1.3,31.4,15.6,2.6,15.6,2.6c0,0,12.1.3,15.6-2.6,3.5-2.9,1.7-30.7,1.3-31.4s-12-14.3-14-15.7Z" />
            <path class="st1"
                d="M20.6,54.2c-2-1.4-2.9-1.2-2.9-1.2,0,0-.9-.2-2.9,1.2-1.3.9-6.6,6.9-10.3,11.2,4.1,2.2,8.6,3.4,13.2,3.4,4.6,0,9.2-1.1,13.2-3.4-3.7-4.3-9-10.3-10.3-11.2Z" />
        </g>
    </g>
</svg>