<?xml version="1.0" encoding="UTF-8"?>
<svg id="layer" xmlns="http://www.w3.org/2000/svg" version="1.1" width="224" height="112"
    viewBox="0 0 224 112">
    <defs>
        <style>
            .st0 {
            fill: #824e20;
            }

            .st1 {
            fill: #079647;
            }

            .st2 {
            fill: #f0f0f0;
            }

            .st3 {
            fill: #cb79b1;
            }

            .st4 {
            fill: #7fb1df;
            }

            .st5 {
            fill: #f16667;
            }

            .st6 {
            fill: #be1e5f;
            }

            .st7 {
            fill: #0f0f0f;
            }

            .st8 {
            fill: #1a1a1a;
            }

            .st9 {
            fill: #66c194;
            }

            .st10 {
            fill: #009898;
            }

            .st11 {
            fill: #e6e6e6;
            }
        </style>
    </defs>
    <g>
        <g>
            <g>
                <path class="st11"
                    d="M83.8,111.3c-14.5,0-26.3-11.7-26.3-26.2,0-14.5,11.7-26.3,26.2-26.3,14.5,0,26.3,11.7,26.3,26.2,0,0,0,0,0,0,0,14.4-11.8,26.1-26.2,26.2Z" />
                <path class="st2"
                    d="M83.8,59.8c13.9,0,25.2,11.4,25.2,25.3,0,13.9-11.4,25.2-25.3,25.2-13.9,0-25.2-11.3-25.2-25.2,0-14,11.3-25.3,25.3-25.3M83.8,57.8c-15,0-27.3,12.2-27.3,27.2,0,15,12.2,27.3,27.2,27.3,15,0,27.3-12.2,27.3-27.2,0-15-12.2-27.2-27.2-27.3Z" />
            </g>
            <path class="st10"
                d="M83.8,66.2c-10.4,0-18.9,8.5-18.9,18.9s8.5,18.9,18.9,18.9,18.9-8.5,18.9-18.9c0-10.4-8.5-18.9-18.9-18.9ZM83.8,101.1c-8.8,0-16-7.2-16-16s7.2-16,16-16,16,7.2,16,16-7.2,16-16,16Z" />
        </g>
        <g>
            <g>
                <path class="st11"
                    d="M27.2,111.3c-14.5-.1-26.1-11.9-26-26.4.1-14.5,11.9-26.1,26.4-26,14.4.1,26,11.8,26,26.2,0,14.5-11.8,26.2-26.3,26.2,0,0,0,0-.1,0Z" />
                <path class="st2"
                    d="M27.3,59.8c13.9,0,25.2,11.4,25.2,25.3s-11.4,25.2-25.3,25.2c-13.9,0-25.2-11.3-25.2-25.2,0-14,11.3-25.3,25.3-25.3M27.3,57.8C12.2,57.8,0,70,0,85.1s12.2,27.3,27.3,27.3,27.3-12.2,27.3-27.3h0c0-15.1-12.2-27.3-27.3-27.3Z" />
            </g>
            <polygon class="st0"
                points="41.6 72.7 39.6 70.7 27.3 83.1 14.9 70.7 12.9 72.7 25.2 85.1 12.9 97.4 14.9 99.5 27.3 87.1 39.6 99.5 41.6 97.4 29.3 85.1 41.6 72.7" />
        </g>
        <g>
            <g>
                <path class="st11"
                    d="M140.3,111.3c-14.5,0-26.2-11.8-26.2-26.3,0-14.5,11.8-26.2,26.3-26.2,14.5,0,26.2,11.7,26.2,26.2,0,14.5-11.7,26.3-26.2,26.3,0,0,0,0-.1,0Z" />
                <path class="st2"
                    d="M140.3,59.8c13.9,0,25.2,11.4,25.2,25.3,0,13.9-11.4,25.2-25.3,25.2-13.9,0-25.2-11.3-25.2-25.2,0-14,11.3-25.3,25.3-25.3M140.3,57.8c-15,0-27.2,12.3-27.2,27.3,0,15,12.3,27.2,27.3,27.2,15,0,27.2-12.3,27.2-27.3,0-15-12.3-27.2-27.3-27.2Z" />
            </g>
            <path class="st1" d="M151.8,70.7h-25.8v28.6h28.6v-28.6h-2.8ZM151.8,96.6h-23v-23h23v23Z" />
        </g>
        <g>
            <g>
                <path class="st11"
                    d="M196.7,111.3c-14.5,0-26.2-11.8-26.2-26.3,0-14.5,11.8-26.2,26.3-26.2,14.5,0,26.2,11.8,26.2,26.3,0,14.5-11.8,26.2-26.3,26.2Z" />
                <path class="st2"
                    d="M196.8,59.8c13.9,0,25.2,11.4,25.2,25.3,0,13.9-11.4,25.2-25.3,25.2-13.9,0-25.2-11.3-25.2-25.2,0-14,11.3-25.3,25.3-25.3M196.8,57.8c-15,0-27.3,12.2-27.3,27.2,0,15,12.2,27.3,27.2,27.3,15,0,27.3-12.2,27.3-27.2,0-15-12.2-27.2-27.2-27.3Z" />
            </g>
            <path class="st6"
                d="M212.7,93.1l-16-27.6-16,27.6-1.6,2.8h35.2l-1.6-2.8ZM196.8,93.1h-12.7l12.7-21.9,12.7,21.9h-12.7Z" />
        </g>
    </g>
    <g>
        <g>
            <g>
                <path class="st8"
                    d="M83.8,53.5c-14.5,0-26.3-11.7-26.3-26.2,0-14.5,11.7-26.3,26.2-26.3,14.5,0,26.3,11.7,26.3,26.2,0,14.5-11.7,26.2-26.2,26.3Z" />
                <path class="st7"
                    d="M83.8,2c13.9,0,25.2,11.4,25.2,25.3,0,13.9-11.4,25.2-25.3,25.2-13.9,0-25.2-11.3-25.2-25.2,0-13.9,11.2-25.3,25.2-25.3,0,0,0,0,.1,0M83.8,0c-15.1,0-27.3,12.1-27.4,27.2,0,15.1,12.1,27.3,27.2,27.4s27.3-12.1,27.4-27.2c0,0,0,0,0,0C111,12.3,98.8,0,83.8,0Z" />
            </g>
            <path class="st5"
                d="M83.8,8.4c-10.4,0-18.9,8.5-18.9,18.9s8.5,18.9,18.9,18.9,18.9-8.5,18.9-18.9c0-10.4-8.5-18.9-18.9-18.9ZM83.8,43.3c-8.8,0-16-7.2-16-16s7.2-16,16-16,16,7.2,16,16-7.2,16-16,16Z" />
        </g>
        <g>
            <g>
                <path class="st8"
                    d="M27.2,53.5c-14.5,0-26.2-11.8-26.2-26.3S12.8,1,27.3,1c14.5,0,26.2,11.8,26.2,26.3,0,14.5-11.8,26.2-26.3,26.2Z" />
                <path class="st7"
                    d="M27.3,2c13.9,0,25.2,11.4,25.2,25.3,0,13.9-11.4,25.2-25.3,25.2-13.9,0-25.2-11.3-25.2-25.2,0-14,11.3-25.3,25.3-25.3M27.3,0C12.2,0,0,12.2,0,27.3s12.2,27.3,27.3,27.3,27.3-12.2,27.3-27.3h0C54.6,12.2,42.4,0,27.4,0c0,0,0,0,0,0Z" />
            </g>
            <polygon class="st4"
                points="41.6 14.9 39.6 12.9 27.3 25.2 14.9 12.9 12.9 14.9 25.2 27.2 12.9 39.6 14.9 41.6 27.3 29.3 39.6 41.6 41.6 39.6 29.3 27.2 41.6 14.9" />
        </g>
        <g>
            <g>
                <path class="st8"
                    d="M140.3,54.2c-14.5,0-26.2-11.8-26.2-26.3,0-14.5,11.8-26.2,26.3-26.2,14.5,0,26.2,11.8,26.2,26.3,0,14.5-11.8,26.2-26.3,26.2,0,0,0,0,0,0Z" />
                <path class="st7"
                    d="M140.3,2.7c13.9,0,25.2,11.4,25.2,25.3,0,13.9-11.4,25.2-25.3,25.2-13.9,0-25.2-11.4-25.2-25.3,0-13.9,11.4-25.2,25.3-25.2M140.3.7c-15,0-27.2,12.3-27.2,27.3,0,15,12.3,27.2,27.3,27.2,15,0,27.2-12.2,27.2-27.2,0-15.1-12.2-27.3-27.3-27.3Z" />
            </g>
            <path class="st3" d="M151.8,13.5h-25.8v28.6h28.6V13.5h-2.8ZM151.8,39.4h-23v-23h23v23Z" />
        </g>
        <g>
            <g>
                <path class="st8"
                    d="M196.7,54.8c-14.5,0-26.3-11.8-26.3-26.3,0-14.5,11.8-26.3,26.3-26.3,14.5,0,26.3,11.8,26.3,26.3,0,0,0,0,0,0,0,14.5-11.8,26.2-26.3,26.2Z" />
                <path class="st7"
                    d="M196.8,3.3c14,0,25.3,11.3,25.3,25.3s-11.3,25.3-25.3,25.3-25.3-11.3-25.3-25.3c0-14,11.3-25.3,25.3-25.3M196.8,1.3c-15.1,0-27.3,12.1-27.4,27.2,0,15.1,12.1,27.3,27.2,27.4,15.1,0,27.3-12.1,27.4-27.2,0,0,0,0,0,0,0-15-12.2-27.2-27.2-27.3Z" />
            </g>
            <path class="st9"
                d="M212.7,36.6l-16-27.6-16,27.6-1.6,2.8h35.2l-1.6-2.8ZM196.8,36.6h-12.7l12.7-21.9,12.7,21.9h-12.7Z" />
        </g>
    </g>
</svg>