<?xml version="1.0" encoding="UTF-8"?>
<svg id="layer" xmlns="http://www.w3.org/2000/svg" version="1.1" width="29" height="47"
    viewBox="0 0 29 47">
    <defs>
        <style>
            .st0 {
            fill: #efeee5;
            }

            .st1 {
            fill: #fff;
            }
        </style>
    </defs>
    <path class="st1"
        d="M14.2,1.7c6.9,0,12.5,5.6,12.5,12.5s0,0,0,0v18.3c0,6.9-5.6,12.5-12.5,12.5S1.7,39.4,1.7,32.5V14.2C1.7,7.3,7.3,1.7,14.2,1.7M14.2,0C6.4,0,0,6.4,0,14.2v18.3c0,7.8,6.4,14.2,14.2,14.2,7.8,0,14.2-6.4,14.2-14.2h0V14.2C28.4,6.4,22,0,14.2,0Z" />
    <path class="st0"
        d="M14.2,1.7C7.3,1.7,1.7,7.3,1.7,14.2v18.3c0,6.9,5.6,12.5,12.5,12.5s12.5-5.6,12.5-12.5V14.2c0-6.9-5.6-12.5-12.5-12.5h0Z" />
</svg>