<?xml version="1.0" encoding="UTF-8"?>
<svg id="layer" xmlns="http://www.w3.org/2000/svg" version="1.1" width="286" height="94"
    viewBox="0 0 286 94">
    <defs>
        <style>
            .st0 {
            fill: #121212;
            }

            .st1 {
            fill: #f0f0f0;
            }

            .st2 {
            fill: #444;
            }

            .st3 {
            fill: #333;
            }

            .st4 {
            fill: #ebebeb;
            }

            .st5 {
            fill: #ededed;
            }
        </style>
    </defs>
    <g>
        <g>
            <path class="st3"
                d="M47,92.5C21.9,92.5,1.5,72.1,1.5,47S21.9,1.5,47,1.5s45.5,20.4,45.5,45.5-20.4,45.5-45.5,45.5Z" />
            <path class="st0"
                d="M47,3c24.3,0,44,19.7,44,44s-19.7,44-44,44S3,71.3,3,47,22.7,3,47,3M47,0C21,0,0,21,0,47s21,47,47,47,47-21,47-47S73,0,47.1,0h0Z" />
        </g>
        <circle class="st2" cx="47" cy="47" r="27.3" />
    </g>
    <g>
        <g>
            <path class="st1"
                d="M239,92.5c-25.1,0-45.5-20.4-45.5-45.5S213.9,1.5,239,1.5s45.5,20.4,45.5,45.5-20.4,45.5-45.5,45.5Z" />
            <path class="st5"
                d="M239,3c24.3,0,44,19.7,44,44s-19.7,44-44,44-44-19.7-44-44S214.7,3,239,3M239,0c-26,0-47,21-47,47s21,47,47,47,47-21,47-47S265,0,239.1,0h-.1Z" />
        </g>
        <circle class="st4" cx="239" cy="47" r="27.3" transform="translate(113.1 255.5) rotate(-70)" />
    </g>
    <g>
        <g>
            <path class="st1"
                d="M143,92.5c-25.1,0-45.5-20.4-45.5-45.5S117.9,1.5,143,1.5s45.5,20.4,45.5,45.5-20.4,45.5-45.5,45.5Z" />
            <path class="st5"
                d="M143,3c24.3,0,44,19.7,44,44s-19.7,44-44,44-44-19.7-44-44S118.7,3,143,3M143,0c-26,0-47,21-47,47s21,47,47,47,47-21,47-47S169,0,143.1,0h-.1Z" />
        </g>
        <circle class="st4" cx="143" cy="47" r="27.3" />
    </g>
</svg>