<?xml version="1.0" encoding="UTF-8"?>
<svg id="layer" xmlns="http://www.w3.org/2000/svg" version="1.1" width="200" height="91"
    viewBox="0 0 200 91">
    <defs>
        <style>
            .st0 {
            fill: #f5f5f5;
            }

            .st1 {
            fill: #ededed;
            }
        </style>
    </defs>
    <g>
        <path class="st1"
            d="M200,90.8s-32.7-3.2-50.6-3.2-48.4,2.4-48.4,2.4c0,0,3.1-44.7,4.8-52s7.7-21.3,16.9-27.9c9.2-6.6,12-10.1,22.8-10.1s25.4,6.4,34.6,21.4c9.2,15,19.9,69.4,19.9,69.4Z" />
        <path class="st0"
            d="M101.5,83.2s26.1-4.4,49-4.4,47.9,4.4,47.9,4.4c1,4.7,1.6,7.6,1.6,7.6,0,0-32.7-3.2-50.6-3.2s-48.4,2.4-48.4,2.4c0,0,.2-2.7.5-6.8Z" />
    </g>
    <g>
        <path class="st1"
            d="M.1,90.8s32.7-3.2,50.6-3.2,48.3,2.4,48.3,2.4c0,0-3.1-44.7-4.8-52s-7.7-21.3-16.9-27.9S65.4,0,54.6,0,29.2,6.4,20,21.4C10.8,36.4.1,90.8.1,90.8Z" />
        <path class="st0"
            d="M98.5,83.2s-26.1-4.4-49-4.4S1.6,83.2,1.6,83.2C.6,87.9,0,90.8,0,90.8,0,90.8,32.7,87.6,50.6,87.6s48.4,2.4,48.4,2.4c0,0,0-2.7-.5-6.8Z" />
    </g>
</svg>